<svg width="16" height="16" viewBox="0 0 16 16" fill="none" xmlns="http://www.w3.org/2000/svg">
<g id="ai">
<g id="Group">
<path id="Shape" d="M8 2C11.3137 2 14 4.68629 14 8C14 11.3137 11.3137 14 8 14C4.68629 14 2 11.3137 2 8C2 4.68629 4.68629 2 8 2Z" fill="#212431" stroke="#555B77" stroke-width="2"/>
<path id="Path" fill-rule="evenodd" clip-rule="evenodd" d="M9.84894 6.11622C9.98389 6.11622 10.0988 6.06748 10.1937 5.97C10.2886 5.87252 10.3363 5.75896 10.3368 5.62933C10.3368 5.49141 10.2891 5.37604 10.1937 5.28322C10.0983 5.19041 9.98339 5.14374 9.84894 5.14322C9.71449 5.1427 9.6016 5.18937 9.51028 5.28322C9.41895 5.37708 9.37329 5.49245 9.37329 5.62933C9.37329 5.76622 9.41895 5.88159 9.51028 5.97545C9.6016 6.0693 9.71449 6.11596 9.84894 6.11545V6.11545V6.11622Z" fill="#F5DFA5"/>
<path id="Path_2" fill-rule="evenodd" clip-rule="evenodd" d="M9.38547 6.54167H10.3132V10.1148H9.38547V6.54167V6.54167Z" fill="#F5DFA5"/>
<path id="Combined Shape" fill-rule="evenodd" clip-rule="evenodd" d="M7.68454 8.91155H6.42427L6.42351 8.91233L6.07876 10.1156H5.2226L6.43569 5.886V5.424H7.58941L8.96917 10.1148H8.01788L7.68454 8.91155ZM7.50647 8.09722L7.043 6.25H7.04224L6.57877 8.09722H7.50647Z" fill="#F5DFA5"/>
</g>
</g>
</svg>
