<svg width="16" height="16" viewBox="0 0 16 16" fill="none" xmlns="http://www.w3.org/2000/svg">
<g id="ai">
<mask id="mask0" mask-type="alpha" maskUnits="userSpaceOnUse" x="0" y="0" width="16" height="16">
<circle id="Ellipse" cx="8" cy="8" r="8" fill="#212431"/>
</mask>
<g mask="url(#mask0)">
<g id="Group">
<path id="Shape" d="M8 1C11.866 1 15 4.13401 15 8C15 11.866 11.866 15 8 15C4.13401 15 1 11.866 1 8C1 4.13401 4.13401 1 8 1Z" fill="#212431" stroke="#555B77" stroke-width="2"/>
<path id="Path" fill-rule="evenodd" clip-rule="evenodd" d="M10.1131 5.84711C10.2673 5.84711 10.3987 5.79141 10.5071 5.68C10.6155 5.56859 10.67 5.43882 10.6706 5.29067C10.6706 5.13304 10.6161 5.00119 10.5071 4.89511C10.3981 4.78904 10.2667 4.7357 10.1131 4.73511C9.95943 4.73452 9.83041 4.78785 9.72604 4.89511C9.62167 5.00237 9.56949 5.13422 9.56949 5.29067C9.56949 5.44711 9.62167 5.57896 9.72604 5.68622C9.83041 5.79348 9.95943 5.84682 10.1131 5.84622V5.84622V5.84711Z" fill="#F5DFA5"/>
<path id="Path_2" fill-rule="evenodd" clip-rule="evenodd" d="M9.5834 6.33334H10.6436V10.4169H9.5834V6.33334V6.33334Z" fill="#F5DFA5"/>
<path id="Combined Shape" fill-rule="evenodd" clip-rule="evenodd" d="M7.63949 9.04178H6.19918L6.19831 9.04267L5.80431 10.4178H4.82584L6.21222 5.584V5.056H7.53077L9.10764 10.4169H8.02044L7.63949 9.04178ZM7.43597 8.11111L6.90629 6H6.90542L6.37574 8.11111H7.43597Z" fill="#F5DFA5"/>
</g>
</g>
</g>
</svg>
