<svg width="16" height="16" viewBox="0 0 16 16" fill="none" xmlns="http://www.w3.org/2000/svg">
<g id="angular">
<mask id="mask0" mask-type="alpha" maskUnits="userSpaceOnUse" x="0" y="0" width="16" height="16">
<circle id="Ellipse" cx="8" cy="8" r="8" fill="#212431"/>
</mask>
<g mask="url(#mask0)">
<g id="angular_2">
<path id="Shape" d="M8.00002 -2V-2V-2L-1.33331 1.32L0.0902459 13.63L8.00002 18V18V18L15.9098 13.63L17.3334 1.32L8.00002 -2Z" fill="#D46C6C"/>
<path id="Shape_2" opacity="0.235224" d="M8 -1.66667V0.701328V0.690661V11.496V11.496V19.6667V19.6667L16.4748 15.0053L18 1.87466L8 -1.66667V-1.66667Z" fill="#343944"/>
<path id="Shape_3" fill-rule="evenodd" clip-rule="evenodd" d="M4.59467 11.156L7.99999 3.326L11.3936 11.156H10.1239L9.43935 9.404H6.54892L5.86435 11.156H4.59467ZM7.99998 5.87001L7.0053 8.32401H8.99466L7.99998 5.87001Z" fill="white"/>
</g>
</g>
</g>
</svg>
