<svg width="16" height="16" viewBox="0 0 16 16" fill="none" xmlns="http://www.w3.org/2000/svg">
<g id="angular-component">
<mask id="mask0" mask-type="alpha" maskUnits="userSpaceOnUse" x="0" y="0" width="16" height="16">
<circle id="Ellipse" cx="8" cy="8" r="8" fill="#212431"/>
</mask>
<g mask="url(#mask0)">
<g id="angular">
<path id="Shape" d="M8.33332 -2.66666V-2.66666V-2.66666L-1.33334 0.874677L0.141057 14.0053L8.33332 18.6667V18.6667V18.6667L16.5256 14.0053L18 0.874677L8.33332 -2.66666Z" fill="#435AAD"/>
<path id="Shape_2" opacity="0.235224" d="M7.99998 -2.66666V-0.298657V-0.309323V10.496V10.496V18.6667V18.6667L16.4747 14.0053L18 0.874677L7.99998 -2.66666V-2.66666Z" fill="#343944"/>
<path id="Shape_3" fill-rule="evenodd" clip-rule="evenodd" d="M4.59467 11.156L7.99999 3.326L11.3936 11.156H10.1239L9.43935 9.404H6.54892L5.86435 11.156H4.59467ZM7.99999 5.87001L7.00531 8.32401H8.99467L7.99999 5.87001Z" fill="white"/>
</g>
</g>
</g>
</svg>
