<svg width="16" height="16" viewBox="0 0 16 16" fill="none" xmlns="http://www.w3.org/2000/svg">
<g id="angular-directive">
<path id="Vector" d="M6.68872 7.46746H9.4313L7.97247 4.38637L6.68872 7.46746ZM1.75216 2.2158C1.31223 2.37239 1.03924 2.81261 1.09452 3.27629L2.04198 11.2226C2.07998 11.5412 2.26859 11.8223 2.54907 11.9782L7.49693 14.7288C7.80018 14.8973 8.16914 14.8967 8.47179 14.727L13.4538 11.9343C13.7326 11.778 13.9199 11.4978 13.9578 11.1804L14.9047 3.23869C14.9604 2.77218 14.6837 2.32985 14.2399 2.17567L8.30961 0.115407C8.0946 0.0407112 7.86055 0.0415992 7.64611 0.117924L1.75216 2.2158ZM10.9353 10.9734L9.98811 8.76272H6.12139L5.25648 10.9734H3.64731L7.96133 1.27399L12.4257 10.9734H10.9353Z" fill="#D491B9"/>
</g>
</svg>
