<svg width="16" height="16" viewBox="0 0 16 16" fill="none" xmlns="http://www.w3.org/2000/svg">
<g id="angular-routing">
<path id="Vector" d="M6.68872 7.46746H9.4313L7.97247 4.38637L6.68872 7.46746ZM1.75216 2.2158C1.31223 2.37239 1.03924 2.81261 1.09452 3.27629L2.04198 11.2226C2.07998 11.5412 2.26859 11.8223 2.54907 11.9782L7.49693 14.7288C7.80018 14.8973 8.16914 14.8967 8.47179 14.727L13.4538 11.9343C13.7326 11.778 13.9199 11.4978 13.9578 11.1804L14.9047 3.23869C14.9604 2.77218 14.6837 2.32985 14.2399 2.17567L8.30961 0.115407C8.0946 0.0407112 7.86055 0.0415992 7.64611 0.117924L1.75216 2.2158ZM10.9353 10.9734L9.98811 8.76272H6.12139L5.25648 10.9734H3.64731L7.96133 1.27399L12.4257 10.9734H10.9353Z" fill="#A99BE2"/>
<path id="&#226;&#157;&#175;" fill-rule="evenodd" clip-rule="evenodd" d="M16 7.49824L13.8291 9.81017C13.7154 9.93129 13.5566 10 13.3905 10V10C12.8635 10 12.5911 9.37055 12.9518 8.98637L14.3491 7.49824L12.9528 6.01327C12.5919 5.62944 12.864 5 13.3909 5V5C13.5568 5 13.7153 5.06854 13.829 5.1894L16 7.49824Z" fill="white"/>
<path id="&#226;&#157;&#175; copy 2" fill-rule="evenodd" clip-rule="evenodd" d="M-7.94728e-08 7.49824L2.17088 9.81017C2.28462 9.93129 2.44339 10 2.60954 10V10C3.13655 10 3.40895 9.37055 3.0482 8.98637L1.65086 7.49824L3.0472 6.01327C3.40812 5.62944 3.13599 5 2.60912 5V5C2.44322 5 2.28469 5.06854 2.17104 5.1894L-7.94728e-08 7.49824Z" fill="white"/>
</g>
</svg>
