<svg width="16" height="16" viewBox="0 0 16 16" fill="none" xmlns="http://www.w3.org/2000/svg">
<g id="angular-guard">
<mask id="mask0" mask-type="alpha" maskUnits="userSpaceOnUse" x="0" y="0" width="16" height="16">
<circle id="Ellipse" cx="8" cy="8" r="8" fill="#212431"/>
</mask>
<g mask="url(#mask0)">
<g id="angular">
<path id="Shape" d="M8 -2V-2V-2L-1.33334 1.32L0.0902232 13.63L8 18V18V18L15.9098 13.63L17.3333 1.32L8 -2Z" fill="#B2E4AE"/>
<path id="Shape_2" opacity="0.235224" d="M8 -2V0.22V0.21V10.34V10.34V18V18L15.9098 13.63L17.3333 1.32L8 -2V-2Z" fill="#343944"/>
<path id="Shape_3" fill-rule="evenodd" clip-rule="evenodd" d="M4.70869 11.156L8.11401 3.326L11.5076 11.156H10.2379L9.55337 9.404H6.66294L5.97837 11.156H4.70869ZM8.11401 5.87001L7.11933 8.32401H9.10869L8.11401 5.87001Z" fill="white"/>
</g>
</g>
</g>
</svg>
