<svg width="16" height="16" viewBox="0 0 16 16" fill="none" xmlns="http://www.w3.org/2000/svg">
<g id="angular-directive">
<mask id="mask0" mask-type="alpha" maskUnits="userSpaceOnUse" x="0" y="0" width="16" height="16">
<circle id="Ellipse" cx="8" cy="8" r="8" fill="#212431"/>
</mask>
<g mask="url(#mask0)">
<g id="angular">
<path id="Shape" d="M8 -2.66667V-2.66667V-2.66667L-2 0.874661L-0.474758 14.0053L8 18.6667V18.6667V18.6667L16.4748 14.0053L18 0.874661L8 -2.66667Z" fill="#D491B9"/>
<path id="Shape_2" opacity="0.235224" d="M8 -2.66667V-0.298672V-0.309339V10.496V10.496V18.6667V18.6667L16.4748 14.0053L18 0.874661L8 -2.66667V-2.66667Z" fill="#343944"/>
<path id="Shape_3" fill-rule="evenodd" clip-rule="evenodd" d="M4.70844 11.156L8.11333 3.32599L11.5065 11.156H10.237L9.55252 9.40399H6.66245L5.97796 11.156H4.70844ZM8.11333 5.86998L7.11877 8.32398H9.10789L8.11333 5.86998Z" fill="white"/>
</g>
</g>
</g>
</svg>
