<svg width="16" height="16" viewBox="0 0 16 16" fill="none" xmlns="http://www.w3.org/2000/svg">
<g id="applescript">
<g id="Group 2">
<circle id="Ellipse" cx="8" cy="8" r="7" fill="#2C303F"/>
<g id="Group">
<path id="&#239;&#163;&#191;" fill-rule="evenodd" clip-rule="evenodd" d="M9.24782 4.61518C8.96212 4.98207 8.46217 5.25837 8.0003 5.20401C7.90031 4.72842 8.17648 4.25282 8.4336 3.94934C8.76214 3.58246 9.28115 3.33333 9.72873 3.33333C9.7573 3.80893 9.57636 4.27547 9.24782 4.61518Z" fill="#CBCEDC"/>
<path id="Path" fill-rule="evenodd" clip-rule="evenodd" d="M9.68587 5.3082C9.98584 5.3082 10.7858 5.39426 11.281 6.11897C11.2429 6.14162 10.3334 6.62175 10.3334 7.68618C10.3763 8.90008 11.481 9.32585 11.5 9.32585C11.481 9.3485 11.3333 9.90563 10.8953 10.4899C10.5477 10.9927 10.162 11.5 9.57635 11.5C9.01926 11.5 8.81927 11.1648 8.17647 11.1648C7.48605 11.1648 7.29083 11.5 6.76231 11.5C6.17664 11.5 5.76239 10.9655 5.39575 10.4673C4.9196 9.81504 4.51488 8.79137 4.50059 7.80847C4.49107 7.28758 4.59582 6.77575 4.86247 6.34092C5.23862 5.73397 5.91 5.32178 6.64327 5.3082C7.20513 5.29008 7.70508 5.67508 8.04791 5.67508C8.37645 5.67508 8.99069 5.3082 9.68587 5.3082Z" fill="#CBCEDC"/>
</g>
</g>
</g>
</svg>
