<svg width="16" height="16" viewBox="0 0 16 16" fill="none" xmlns="http://www.w3.org/2000/svg">
<g id="applescript">
<mask id="mask0" mask-type="alpha" maskUnits="userSpaceOnUse" x="0" y="0" width="16" height="16">
<circle id="Ellipse" cx="8" cy="8" r="8" fill="#3F445A"/>
</mask>
<g mask="url(#mask0)">
<circle id="Ellipse_2" cx="8" cy="8" r="8" fill="#2C303F"/>
<g id="Group">
<path id="&#239;&#163;&#191;" fill-rule="evenodd" clip-rule="evenodd" d="M9.42607 4.13163C9.09956 4.55093 8.52818 4.8667 8.00034 4.80459C7.88606 4.26105 8.20168 3.71751 8.49553 3.37068C8.87101 2.95138 9.46416 2.66667 9.97568 2.66667C10.0083 3.21021 9.80155 3.74339 9.42607 4.13163Z" fill="#CBCEDC"/>
<path id="Path" fill-rule="evenodd" clip-rule="evenodd" d="M9.92671 4.92365C10.2695 4.92365 11.1837 5.02201 11.7497 5.85026C11.7061 5.87614 10.6668 6.42485 10.6668 7.64134C10.7158 9.02866 11.9782 9.51526 12 9.51526C11.9782 9.54114 11.8095 10.1779 11.3089 10.8456C10.9117 11.4202 10.4709 12 9.80155 12C9.16487 12 8.93631 11.6169 8.20168 11.6169C7.41263 11.6169 7.18952 12 6.58549 12C5.91616 12 5.44273 11.3892 5.02372 10.8198C4.47955 10.0743 4.017 8.90442 4.00068 7.78111C3.98979 7.18581 4.10951 6.60086 4.41425 6.10391C4.84414 5.41025 5.61142 4.93918 6.44945 4.92365C7.09157 4.90295 7.66295 5.34295 8.05476 5.34295C8.43023 5.34295 9.13222 4.92365 9.92671 4.92365Z" fill="#CBCEDC"/>
</g>
</g>
</g>
</svg>
