<svg width="16" height="16" viewBox="0 0 16 16" fill="none" xmlns="http://www.w3.org/2000/svg">
<g id="audio">
<path id="Subtract" fill-rule="evenodd" clip-rule="evenodd" d="M13 8C13 10.7614 10.7614 13 8 13C5.23858 13 3 10.7614 3 8C3 5.23858 5.23858 3 8 3C10.7614 3 13 5.23858 13 8ZM8.49997 5.52052C9.07221 5.59102 10.4764 5.91552 10.9867 7.41977C11.0204 7.51877 10.9887 7.62827 10.9074 7.69402C10.8619 7.73102 10.8062 7.75002 10.7499 7.75002C10.7062 7.75002 10.6622 7.73852 10.6227 7.71527C9.98219 7.33652 8.96271 7.26427 8.49997 7.25177V9.75002C8.49997 10.4393 7.93922 11 7.24999 11C6.56075 11 6.00001 10.4393 6.00001 9.75002C6.00001 9.06077 6.56075 8.50002 7.24999 8.50002C7.53248 8.50002 7.79048 8.59777 7.99997 8.75652V5.00002H8.49997V5.52052Z" fill="#D46C6C"/>
</g>
</svg>
