<svg width="16" height="16" viewBox="0 0 16 16" fill="none" xmlns="http://www.w3.org/2000/svg">
<g id="bower">
<g id="Group">
<circle id="Ellipse" cx="8" cy="8" r="7" fill="#2C303F"/>
<g id="bower_2">
<path id="outline" d="M14.1081 6.6984C13.4208 6.04252 9.98373 5.63308 8.89924 5.5139C8.95177 5.3907 8.99649 5.26328 9.03341 5.13207C9.18125 5.06777 9.34085 5.00795 9.50585 4.958C9.52596 5.0169 9.62066 5.2426 9.67463 5.34971C11.8553 5.40945 11.9673 3.74035 12.056 3.28309C12.1427 2.83597 12.1383 2.40396 12.8863 1.61419C11.7719 1.29168 10.1694 2.11405 9.63254 3.33801C9.43082 3.26295 9.22866 3.20752 9.02872 3.17323C8.88542 2.59922 8.13927 1 6.18123 1C3.70212 1 1 3.03108 1 6.46937C1 9.35954 2.98692 11.8924 4.10939 11.8924C4.59965 11.8924 5.02139 11.5278 5.12039 11.201C5.20339 11.4251 5.45806 12.1217 5.54171 12.2991C5.66534 12.5613 6.23707 12.7882 6.48727 12.5161C6.80896 12.6936 7.39926 12.8005 7.72099 12.3272C8.34058 12.4573 8.88832 12.0904 8.90029 11.6526C9.2043 11.6364 9.35345 11.2125 9.28706 10.8749C9.23812 10.6263 8.71532 9.73445 8.5114 9.42657C8.91508 9.75265 9.93757 9.84495 10.0618 9.42677C10.7126 9.93409 11.7269 9.66782 11.8073 9.25522C12.5981 9.45928 13.5052 9.01111 13.3562 8.46832C14.6267 8.38106 14.4641 7.03869 14.1076 6.69851L14.1081 6.6984Z" fill="black"/>
<g id="leaf">
<path id="Shape" fill-rule="evenodd" clip-rule="evenodd" d="M11.6223 2.34333C11.188 2.70754 10.8441 3.29624 10.5705 3.83539C10.7542 3.96362 11.1149 4.266 11.272 4.42269C11.5279 4.11422 11.613 3.67789 11.6986 3.23904C11.7965 2.73661 11.8952 2.23088 12.2516 1.9099C11.2548 1.96373 10.3503 2.65283 9.96104 3.47795C10.1067 3.54799 10.2511 3.62807 10.3933 3.71784C10.6723 3.10656 11.1443 2.53464 11.6223 2.34333ZM10.1616 4.46091C10.147 4.53356 10.1392 4.69271 10.1389 4.71334C10.157 4.68242 10.1997 4.59337 10.2307 4.52891C10.24 4.50933 10.2483 4.49202 10.2545 4.4793C10.4927 4.52449 10.806 4.60004 10.9895 4.68503C10.7739 4.82369 10.4076 4.97453 9.90039 4.98509C9.82674 4.82662 9.75223 4.56337 9.76128 4.40864C9.88534 4.40574 10.1233 4.45196 10.1616 4.46091Z" fill="#7ACCEE"/>
</g>
<g id="Group_2">
<path id="wingtip" fill-rule="evenodd" clip-rule="evenodd" d="M9.90442 6.90834C9.90435 6.90833 9.90428 6.90832 9.90421 6.90832L9.90424 6.90833C9.9043 6.90833 9.90436 6.90834 9.90442 6.90834ZM9.90442 6.90834C10.8697 6.98194 12.4659 7.12487 13.4541 7.26222C13.3917 6.9428 13.2211 6.85156 12.6846 6.70847C12.1077 6.76958 10.644 6.91236 9.90442 6.90834ZM8.25489 8.98137L8.25437 8.97896L8.25437 8.97892C8.67245 9.43158 9.72993 9.38441 9.71921 8.97473C10.563 9.40155 11.3054 9.03291 11.1218 8.6234C11.9556 8.89904 12.5543 8.39859 12.2459 7.98148C12.8165 8.11355 13.1951 7.9235 13.3613 7.65437C13.1111 7.5908 12.314 7.43201 11.4823 7.27271C11.6072 7.47064 11.0504 7.92487 10.5626 7.69912C10.7905 8.20938 9.78804 8.63391 9.30104 8.27001C9.35323 8.68122 8.35828 8.91792 8.0408 8.459C8.12234 8.67712 8.1906 8.84399 8.25489 8.98137Z" fill="#2ECC71"/>
<path id="body" d="M9.30113 8.2701C9.78812 8.634 10.7906 8.20947 10.5627 7.69921C11.0505 7.92496 11.6073 7.47073 11.4824 7.2728C10.4991 7.08453 9.46732 6.89557 9.23328 6.86254C9.37525 6.87002 9.61058 6.88603 9.90429 6.90844C10.6439 6.91249 12.1077 6.76969 12.6847 6.70857C11.7504 6.47333 9.84304 6.13001 8.52586 6.04544C8.46481 6.13404 8.35259 6.2843 8.15714 6.44397C7.5808 7.65498 6.53659 8.45994 5.38121 8.45994C5.04451 8.45994 4.66778 8.40354 4.24554 8.26949C3.98222 8.54964 2.85953 8.76194 1.94858 8.31789C2.67115 9.99817 4.34686 11.1198 6.20186 11.1198C7.76401 11.1198 8.45674 9.5356 8.30513 9.11642C8.26835 9.01465 8.12259 8.67721 8.04103 8.4591C8.35854 8.91798 9.35349 8.68129 9.30133 8.27008L9.30113 8.2701Z" fill="#F4BF75"/>
<path id="beak" d="M8.35448 5.08158C8.49241 5.00706 8.96905 4.72013 9.42325 4.61231C9.41608 4.56236 9.41068 4.51197 9.40733 4.4613C9.10934 4.53217 8.54755 4.7713 8.22559 4.44176C8.9048 4.6453 9.24393 4.2604 9.74316 4.2604C10.0406 4.2604 10.4651 4.34292 10.7997 4.47338C10.5306 4.22648 9.64805 3.48134 8.55537 3.47877C8.31141 3.77249 8.0477 4.40875 8.35445 5.08156L8.35448 5.08158Z" fill="#CFD2D3"/>
<path id="head" d="M4.24556 8.26921C4.6678 8.40326 5.04453 8.45967 5.38122 8.45967C6.53658 8.45967 7.58079 7.65468 8.15716 6.44369C7.73088 6.79706 6.99007 7.09942 5.83311 7.09942C6.86365 6.86736 7.75078 6.35735 8.20207 5.61189C7.88483 5.11047 7.54078 4.00116 8.41208 3.12422C8.27805 2.69661 7.62568 1.56772 6.18148 1.56772C3.66108 1.56772 1.57234 3.66216 1.57234 6.46894C1.57234 7.1334 1.70741 7.75656 1.94866 8.31745C2.85958 8.76153 3.98227 8.54923 4.24559 8.26908L4.24556 8.26921Z" fill="#D14748"/>
<path id="eye_rim" d="M5.00151 3.99543C5.00151 4.6339 5.52269 5.15152 6.1656 5.15152C6.80851 5.15152 7.32975 4.63387 7.32975 3.99543C7.32975 3.35696 6.80851 2.83934 6.1656 2.83934C5.52269 2.83934 5.00151 3.35696 5.00151 3.99543Z" fill="#F4BF75"/>
<path id="eye" d="M5.46873 3.99543C5.46873 4.37768 5.78083 4.68756 6.16567 4.68756C6.55064 4.68756 6.86264 4.37765 6.86264 3.99543C6.86264 3.61316 6.55064 3.30327 6.16567 3.30327C5.7808 3.30327 5.46873 3.61319 5.46873 3.99543V3.99543Z" fill="#343944"/>
<path id="pupil_highlight" d="M6.1656 3.93923C6.38991 3.93923 6.57174 3.82696 6.57174 3.68846C6.57174 3.54997 6.38991 3.4377 6.1656 3.4377C5.9413 3.4377 5.75946 3.54997 5.75946 3.68846C5.75946 3.82696 5.9413 3.93923 6.1656 3.93923Z" fill="white"/>
</g>
</g>
</g>
</g>
</svg>
