<svg width="16" height="16" viewBox="0 0 16 16" fill="none" xmlns="http://www.w3.org/2000/svg">
<g id="bower">
<g id="Group">
<mask id="mask0" mask-type="alpha" maskUnits="userSpaceOnUse" x="0" y="0" width="16" height="16">
<circle id="Ellipse" cx="8" cy="8" r="8" fill="#212431"/>
</mask>
<g mask="url(#mask0)">
<circle id="Ellipse_2" cx="8" cy="8" r="8" fill="#2C303F"/>
</g>
</g>
<g id="bower_2">
<path id="outline" d="M14.9807 6.51246C14.1952 5.76288 10.2671 5.29495 9.0277 5.15875C9.08773 5.01794 9.13885 4.87232 9.18104 4.72237C9.35 4.64889 9.5324 4.58052 9.72097 4.52343C9.74395 4.59075 9.85219 4.84868 9.91387 4.9711C12.4061 5.03937 12.534 3.13183 12.6354 2.60924C12.7345 2.09826 12.7295 1.60453 13.5843 0.701936C12.3108 0.333353 10.4793 1.2732 9.86576 2.67202C9.63522 2.58623 9.40418 2.52288 9.17569 2.4837C9.01191 1.82768 8.15917 0 5.92141 0C3.08814 0 0 2.32123 0 6.25071C0 9.55376 2.27076 12.4485 3.55359 12.4485C4.11389 12.4485 4.59587 12.0318 4.70902 11.6583C4.80388 11.9144 5.09493 12.7105 5.19052 12.9132C5.33181 13.2129 5.98523 13.4723 6.27116 13.1612C6.63881 13.3641 7.31344 13.4863 7.68113 12.9453C8.38923 13.0941 9.01522 12.6747 9.0289 12.1744C9.37635 12.1559 9.5468 11.6714 9.47092 11.2856C9.41499 11.0015 8.81751 9.98223 8.58446 9.63036C9.0458 10.003 10.2144 10.1085 10.3563 9.6306C11.1001 10.2104 12.2593 9.90608 12.3512 9.43454C13.255 9.66775 14.2916 9.15556 14.1214 8.53522C15.5734 8.4355 15.3875 6.90136 14.9801 6.51258L14.9807 6.51246Z" fill="black"/>
<g id="leaf">
<path id="Shape" fill-rule="evenodd" clip-rule="evenodd" d="M12.1397 1.53522C11.6434 1.95147 11.2504 2.62427 10.9377 3.24045C11.1477 3.38699 11.5599 3.73257 11.7394 3.91164C12.0319 3.5591 12.1291 3.06044 12.2269 2.5589C12.3389 1.98469 12.4516 1.40671 12.8589 1.03989C11.7197 1.1014 10.6861 1.88894 10.2412 2.83194C10.4076 2.91198 10.5726 3.0035 10.7352 3.1061C11.0541 2.40749 11.5934 1.75387 12.1397 1.53522ZM10.4704 3.95532C10.4537 4.03835 10.4448 4.22024 10.4445 4.24382C10.4652 4.20848 10.514 4.1067 10.5493 4.03304C10.5601 4.01066 10.5695 3.99088 10.5766 3.97634C10.8488 4.02799 11.2068 4.11433 11.4166 4.21145C11.1702 4.36993 10.7515 4.54231 10.1719 4.55438C10.0877 4.37328 10.0026 4.07242 10.0129 3.89558C10.1547 3.89227 10.4266 3.94509 10.4704 3.95532Z" fill="#7ACCEE"/>
</g>
<g id="Group_2">
<path id="wingtip" fill-rule="evenodd" clip-rule="evenodd" d="M10.1765 6.75238C10.1764 6.75237 10.1763 6.75237 10.1762 6.75236L10.1763 6.75238C10.1763 6.75238 10.1764 6.75238 10.1765 6.75238ZM10.1765 6.75238C11.2797 6.83649 13.1039 6.99984 14.2333 7.15681C14.1619 6.79177 13.967 6.6875 13.3539 6.52396C12.6945 6.5938 11.0218 6.75698 10.1765 6.75238ZM8.2913 9.12156L8.2907 9.1188L8.29071 9.11876C8.76852 9.63609 9.97707 9.58218 9.96482 9.11398C10.9291 9.60177 11.7776 9.18046 11.5678 8.71246C12.5207 9.02747 13.2049 8.45553 12.8525 7.97883C13.5046 8.12976 13.9372 7.91257 14.1272 7.60499C13.8412 7.53234 12.9303 7.35087 11.9798 7.16881C12.1225 7.39502 11.4862 7.91413 10.9287 7.65613C11.1891 8.23929 10.0435 8.72446 9.48691 8.30858C9.54655 8.77854 8.40946 9.04904 8.04663 8.52457C8.13981 8.77384 8.21783 8.96456 8.2913 9.12156Z" fill="#2ECC71"/>
<path id="body" d="M9.487 8.30867C10.0436 8.72455 11.1892 8.23938 10.9288 7.65623C11.4863 7.91422 12.1226 7.39511 11.9799 7.16891C10.8562 6.95373 9.67694 6.73779 9.40947 6.70003C9.57172 6.70859 9.84066 6.72688 10.1763 6.75249C11.0216 6.75712 12.6945 6.59391 13.3539 6.52407C12.2862 6.25522 10.1063 5.86286 8.60098 5.7662C8.53121 5.86746 8.40297 6.03919 8.17959 6.22167C7.52092 7.60568 6.32754 8.52564 5.0071 8.52564C4.6223 8.52564 4.19175 8.46117 3.70919 8.30797C3.40826 8.62814 2.12518 8.87077 1.08409 8.36329C1.90989 10.2836 3.82499 11.5655 5.94499 11.5655C7.7303 11.5655 8.52199 9.75496 8.34872 9.2759C8.30669 9.15959 8.14011 8.77395 8.0469 8.52467C8.40976 9.04911 9.54685 8.77861 9.48724 8.30865L9.487 8.30867Z" fill="#F4BF75"/>
<path id="beak" d="M8.40512 4.66465C8.56275 4.57949 9.10748 4.25156 9.62657 4.12834C9.61838 4.07125 9.61221 4.01367 9.60838 3.95576C9.26782 4.03676 8.62578 4.31005 8.25782 3.93343C9.03406 4.16605 9.42163 3.72616 9.99218 3.72616C10.3321 3.72616 10.8173 3.82047 11.1996 3.96957C10.8921 3.6874 9.88348 2.8358 8.6347 2.83287C8.35589 3.16855 8.05451 3.8957 8.40509 4.66463L8.40512 4.66465Z" fill="#CFD2D3"/>
<path id="head" d="M3.7092 8.30766C4.19176 8.46086 4.62231 8.52533 5.0071 8.52533C6.32751 8.52533 7.52089 7.60534 8.1796 6.22136C7.69243 6.6252 6.84579 6.97076 5.52354 6.97076C6.70131 6.70555 7.71517 6.12268 8.23093 5.27072C7.86838 4.69767 7.47517 3.4299 8.47095 2.42768C8.31777 1.93898 7.57219 0.648819 5.92168 0.648819C3.04123 0.648819 0.654099 3.04247 0.654099 6.25021C0.654099 7.0096 0.808463 7.72178 1.08418 8.3628C2.12523 8.87031 3.4083 8.62768 3.70924 8.30751L3.7092 8.30766Z" fill="#D14748"/>
<path id="eye_rim" d="M4.57315 3.42334C4.57315 4.15302 5.16879 4.74458 5.90354 4.74458C6.63829 4.74458 7.234 4.15299 7.234 3.42334C7.234 2.69366 6.63829 2.1021 5.90354 2.1021C5.16879 2.1021 4.57315 2.69366 4.57315 3.42334Z" fill="#F4BF75"/>
<path id="eye" d="M5.10713 3.42335C5.10713 3.8602 5.46381 4.21435 5.90363 4.21435C6.34359 4.21435 6.70017 3.86017 6.70017 3.42335C6.70017 2.98646 6.34359 2.63231 5.90363 2.63231C5.46378 2.63231 5.10713 2.9865 5.10713 3.42335V3.42335Z" fill="#343944"/>
<path id="pupil_highlight" d="M5.90354 3.35912C6.15989 3.35912 6.3677 3.23081 6.3677 3.07253C6.3677 2.91425 6.15989 2.78593 5.90354 2.78593C5.64719 2.78593 5.43938 2.91425 5.43938 3.07253C5.43938 3.23081 5.64719 3.35912 5.90354 3.35912Z" fill="white"/>
</g>
</g>
</g>
</svg>
