<svg width="16" height="16" viewBox="0 0 16 16" fill="none" xmlns="http://www.w3.org/2000/svg">
<g id="bower">
<g id="Group">
<circle id="Ellipse" cx="8" cy="8" r="6" fill="#2C303F"/>
<g id="bower_2">
<path id="outline" d="M13.2355 6.88434C12.6464 6.32216 9.70034 5.97121 8.77078 5.86906C8.8158 5.76346 8.85413 5.65424 8.88578 5.54178C9.0125 5.48666 9.1493 5.43539 9.29073 5.39257C9.30797 5.44306 9.38914 5.63651 9.4354 5.72832C11.3046 5.77953 11.4005 4.34887 11.4766 3.95693C11.5509 3.57369 11.5471 3.2034 12.1883 2.52645C11.2331 2.25001 9.85947 2.9549 9.39932 4.00401C9.22642 3.93967 9.05314 3.89216 8.88176 3.86277C8.75893 3.37076 8.11938 2 6.44106 2C4.31611 2 2 3.74092 2 6.68803C2 9.16532 3.70307 11.3364 4.66519 11.3364C5.08542 11.3364 5.4469 11.0238 5.53176 10.7437C5.60291 10.9358 5.8212 11.5329 5.89289 11.6849C5.99886 11.9097 6.48892 12.1042 6.70337 11.8709C6.97911 12.0231 7.48508 12.1147 7.76085 11.709C8.29192 11.8205 8.76141 11.506 8.77167 11.1308C9.03226 11.117 9.1601 10.7536 9.10319 10.4642C9.06124 10.2511 8.61313 9.48667 8.43835 9.22277C8.78435 9.50227 9.66078 9.58138 9.76723 9.22295C10.3251 9.6578 11.1945 9.42956 11.2634 9.07591C11.9413 9.25081 12.7187 8.86667 12.5911 8.40141C13.68 8.32663 13.5406 7.17602 13.2351 6.88443L13.2355 6.88434Z" fill="black"/>
<g id="leaf">
<path id="Shape" fill-rule="evenodd" clip-rule="evenodd" d="M11.1048 3.15142C10.7325 3.46361 10.4378 3.96821 10.2033 4.43034C10.3607 4.54024 10.6699 4.79943 10.8045 4.93373C11.0239 4.66933 11.0968 4.29533 11.1702 3.91917C11.2542 3.48852 11.3387 3.05504 11.6442 2.77992C10.7898 2.82605 10.0145 3.41671 9.68089 4.12396C9.8057 4.18399 9.92947 4.25263 10.0514 4.32958C10.2906 3.80562 10.6951 3.31541 11.1048 3.15142ZM9.85276 4.9665C9.84026 5.02877 9.8336 5.16518 9.83335 5.18287C9.84889 5.15636 9.88549 5.08003 9.91198 5.02479C9.92003 5.008 9.92715 4.99316 9.93246 4.98226C10.1366 5.02099 10.4051 5.08575 10.5625 5.15859C10.3776 5.27745 10.0636 5.40674 9.6289 5.41579C9.56577 5.27996 9.50191 5.05432 9.50966 4.92169C9.616 4.9192 9.81995 4.95882 9.85276 4.9665Z" fill="#7ACCEE"/>
</g>
<g id="Group_2">
<path id="wingtip" fill-rule="evenodd" clip-rule="evenodd" d="M9.63235 7.06429C9.63229 7.06428 9.63223 7.06428 9.63218 7.06427L9.6322 7.06429C9.63225 7.06429 9.6323 7.06429 9.63235 7.06429ZM9.63235 7.06429C10.4598 7.12737 11.8279 7.24989 12.6749 7.36761C12.6214 7.09383 12.4752 7.01563 12.0154 6.89297C11.5209 6.94535 10.2663 7.06774 9.63235 7.06429ZM8.21848 8.84117L8.21803 8.83911L8.21803 8.83908C8.57639 9.22707 9.4828 9.18664 9.47361 8.83549C10.1968 9.20133 10.8332 8.88535 10.6759 8.53435C11.3905 8.77061 11.9037 8.34165 11.6394 7.98413C12.1285 8.09733 12.4529 7.93443 12.5954 7.70375C12.3809 7.64926 11.6978 7.51315 10.9849 7.37661C11.0919 7.54627 10.6146 7.9356 10.1965 7.7421C10.3918 8.17947 9.5326 8.54335 9.11518 8.23144C9.15991 8.58391 8.30709 8.78679 8.03497 8.39343C8.10486 8.58039 8.16337 8.72342 8.21848 8.84117Z" fill="#2ECC71"/>
<path id="body" d="M9.11525 8.23151C9.53267 8.54342 10.3919 8.17955 10.1966 7.74218C10.6147 7.93568 11.092 7.54634 10.9849 7.37669C10.1421 7.21531 9.2577 7.05335 9.0571 7.02503C9.17879 7.03145 9.38049 7.04517 9.63225 7.06438C10.2662 7.06785 11.5209 6.94544 12.0154 6.89306C11.2147 6.69142 9.57975 6.39715 8.45073 6.32466C8.39841 6.40061 8.30222 6.5294 8.13469 6.66626C7.64068 7.70427 6.74565 8.39424 5.75532 8.39424C5.46672 8.39424 5.14381 8.34589 4.78189 8.23099C4.55619 8.47112 3.59388 8.65309 2.81306 8.27248C3.43241 9.71272 4.86874 10.6741 6.45874 10.6741C7.79772 10.6741 8.39149 9.31623 8.26154 8.95693C8.23001 8.8697 8.10508 8.58047 8.03517 8.39351C8.30731 8.78684 9.16013 8.58396 9.11543 8.2315L9.11525 8.23151Z" fill="#F4BF75"/>
<path id="beak" d="M8.30384 5.49849C8.42206 5.43462 8.83061 5.18868 9.21993 5.09626C9.21379 5.05345 9.20915 5.01026 9.20628 4.96683C8.95086 5.02758 8.46933 5.23255 8.19337 4.95008C8.77554 5.12455 9.06622 4.79463 9.49414 4.79463C9.7491 4.79463 10.113 4.86536 10.3997 4.97718C10.1691 4.76556 9.41261 4.12686 8.47603 4.12466C8.26692 4.37642 8.04088 4.92178 8.30382 5.49848L8.30384 5.49849Z" fill="#CFD2D3"/>
<path id="head" d="M4.78191 8.23075C5.14383 8.34565 5.46675 8.394 5.75534 8.394C6.74565 8.394 7.64068 7.70401 8.13471 6.66602C7.76933 6.96891 7.13435 7.22807 6.14267 7.22807C7.02599 7.02916 7.78639 6.59201 8.17321 5.95304C7.90129 5.52326 7.60639 4.57243 8.35322 3.82076C8.23834 3.45424 7.67916 2.48662 6.44127 2.48662C4.28093 2.48662 2.49059 4.28186 2.49059 6.68767C2.49059 7.2572 2.60636 7.79134 2.81314 8.2721C3.59394 8.65274 4.55624 8.47077 4.78194 8.23064L4.78191 8.23075Z" fill="#D14748"/>
<path id="eye_rim" d="M5.42987 4.56751C5.42987 5.11477 5.8766 5.55844 6.42766 5.55844C6.97873 5.55844 7.42551 5.11475 7.42551 4.56751C7.42551 4.02025 6.97873 3.57658 6.42766 3.57658C5.8766 3.57658 5.42987 4.02025 5.42987 4.56751Z" fill="#F4BF75"/>
<path id="eye" d="M5.83034 4.56751C5.83034 4.89515 6.09785 5.16077 6.42771 5.16077C6.75768 5.16077 7.02512 4.89512 7.02512 4.56751C7.02512 4.23985 6.75768 3.97423 6.42771 3.97423C6.09782 3.97423 5.83034 4.23987 5.83034 4.56751V4.56751Z" fill="#343944"/>
<path id="pupil_highlight" d="M6.42766 4.51934C6.61993 4.51934 6.77578 4.42311 6.77578 4.3044C6.77578 4.18569 6.61993 4.08945 6.42766 4.08945C6.2354 4.08945 6.07954 4.18569 6.07954 4.3044C6.07954 4.42311 6.2354 4.51934 6.42766 4.51934Z" fill="white"/>
</g>
</g>
</g>
</g>
</svg>
