<svg width="16" height="16" viewBox="0 0 16 16" fill="none" xmlns="http://www.w3.org/2000/svg">
<g id="coffee">
<g id="Group">
<mask id="mask0" mask-type="alpha" maskUnits="userSpaceOnUse" x="0" y="0" width="16" height="16">
<circle id="Ellipse" cx="8" cy="8" r="8" fill="#212431"/>
</mask>
<g mask="url(#mask0)">
<circle id="Ellipse_2" cx="8" cy="8" r="8" fill="#BD733D"/>
</g>
</g>
<g id="Group 2">
<path id="Shape" fill-rule="evenodd" clip-rule="evenodd" d="M2.88668 4.42482C3.26582 4.182 3.42355 4.15189 3.29717 4.36363C3.23347 4.42482 3.23347 4.57633 3.23347 4.66763C3.32851 5.00175 4.62365 5.4262 5.82477 5.54761C6.17256 5.57772 6.58305 5.6088 6.74077 5.63891C7.08857 5.66902 9.33207 5.66902 10.058 5.6088C12.0487 5.48739 13.628 4.97164 13.4703 4.48601C13.3439 4.15189 13.7544 4.3646 13.9758 4.75893C14.0708 4.94153 13.8807 5.24457 13.5016 5.42717C13.1851 5.60977 11.9537 5.94292 11.4795 5.974C11.3218 6.00411 10.9427 6.0653 10.6575 6.09541C10.0256 6.18671 6.61338 6.18671 5.91778 6.09541C4.84305 5.974 4.5276 5.91281 3.80066 5.70107C2.97869 5.45825 2.47317 5.09402 2.53686 4.8211C2.53686 4.69969 2.69459 4.51709 2.88466 4.42676L2.88668 4.42482ZM2.66526 6.12454C2.60157 5.79043 2.63392 5.73021 2.72896 5.85162C2.85534 6.03422 3.93008 6.45866 4.3719 6.51985C4.52962 6.54996 4.75104 6.58104 4.87742 6.61115C5.76208 6.82386 9.61718 6.88408 10.8173 6.73256C12.3338 6.54996 13.4086 6.24692 13.7554 5.94292C13.9768 5.76032 13.9768 5.76032 13.9768 5.91281C13.9768 6.24692 13.5026 7.67373 13.1872 8.3711C12.9971 8.73533 12.5866 9.37249 12.2388 9.82802C11.891 10.2835 11.5432 10.8605 11.4805 11.1033C11.1014 12.1358 10.2794 12.5 8.28968 12.5C6.33029 12.5 5.54066 12.1659 5.16152 11.1645C5.06649 10.9217 4.68735 10.2845 4.33955 9.79888C3.96041 9.31324 3.58127 8.7363 3.45489 8.52359C3.35985 8.31088 3.23347 8.12926 3.23347 8.12926C3.20213 8.12926 3.10709 8.25067 3.01205 8.37207C2.79063 8.70619 2.75929 9.40454 2.94836 9.8591C3.16977 10.3748 3.83302 10.9217 4.30719 10.9819C4.90775 11.1033 4.62365 11.2548 3.83302 11.2859C3.23246 11.316 3.13742 11.2859 2.82198 11.0431C2.15873 10.5876 2 10.2845 2 9.49487C2 8.91793 2.03134 8.76641 2.25276 8.43229C2.37914 8.24969 2.60056 7.97677 2.75828 7.82525L3.04238 7.61254L2.88466 7.06571C2.78962 6.79278 2.69458 6.36736 2.66324 6.12454H2.66526Z" fill="#F5DFA5"/>
<path id="Path" fill-rule="evenodd" clip-rule="evenodd" d="M8.54143 3.57495C9.04695 3.45354 10.058 3.48365 10.5322 3.63614C11.5119 3.97026 11.5119 4.79002 10.5322 5.00176C9.67885 5.15328 8.66781 4.97165 8.66781 4.60742C8.66781 4.42482 9.01561 4.3646 9.26837 4.51612C9.55247 4.72883 10.2167 4.69872 10.4695 4.48601C10.7536 4.2733 10.6596 4.12178 10.1217 4.03048C9.58382 3.93918 8.73151 4.15189 7.90953 4.54623C7.30897 4.81916 7.08756 4.88035 6.55069 4.91046C5.8551 4.91046 5.50831 4.81916 5.2232 4.48504C5.06548 4.33352 5.06548 4.27233 5.12816 4.05962C5.31824 3.7255 6.26558 3.54387 6.67606 3.78669C6.89748 3.93821 6.73976 3.9994 6.20188 3.9994C5.56998 3.96929 5.31722 4.12081 5.53864 4.33352C5.72872 4.57634 6.487 4.51612 7.02386 4.24222C8.00356 3.75658 8.19262 3.66528 8.54042 3.57398L8.54143 3.57495Z" fill="white"/>
</g>
</g>
</svg>
