<svg width="16" height="16" viewBox="0 0 16 16" fill="none" xmlns="http://www.w3.org/2000/svg">
<g id="coffee">
<g id="Group 2">
<path id="Path" fill-rule="evenodd" clip-rule="evenodd" d="M2.07251 5.91616C2.00174 5.54491 2.03768 5.478 2.14328 5.6129C2.2837 5.81579 3.47786 6.2874 3.96877 6.35539C4.14402 6.38885 4.39004 6.42338 4.53046 6.45684C5.51342 6.69318 9.79687 6.76009 11.1303 6.59173C12.8154 6.38885 14.0095 6.05214 14.3949 5.71435C14.6409 5.51146 14.6409 5.51146 14.6409 5.68089C14.6409 6.05214 14.114 7.63748 13.7635 8.41234C13.5523 8.81704 13.0962 9.52499 12.7098 10.0311C12.3234 10.5373 11.9369 11.1783 11.8673 11.4481C11.446 12.5953 10.5327 13 8.32187 13C6.14476 13 5.2674 12.6288 4.84613 11.5161C4.74054 11.2463 4.31927 10.5384 3.93283 9.99876C3.51156 9.45916 3.09029 8.81812 2.94987 8.58177C2.84427 8.34543 2.70385 8.14362 2.70385 8.14362C2.66902 8.14362 2.56343 8.27852 2.45783 8.41342C2.21181 8.78466 2.17698 9.5606 2.38706 10.0657C2.63308 10.6387 3.37001 11.2463 3.89688 11.3132C4.56417 11.4481 4.2485 11.6165 3.37001 11.651C2.70273 11.6845 2.59713 11.651 2.24663 11.3812C1.5097 10.8751 1.33333 10.5384 1.33333 9.66097C1.33333 9.01993 1.36815 8.85157 1.61417 8.48033C1.75459 8.27744 2.00061 7.97418 2.17586 7.80583L2.49153 7.56949L2.31628 6.9619C2.21069 6.65864 2.10509 6.18596 2.07026 5.91616H2.07251Z" fill="#BD733D"/>
<path id="Path_2" fill-rule="evenodd" clip-rule="evenodd" d="M2.31853 4.02757C2.7398 3.75777 2.91504 3.72431 2.77462 3.95958C2.70385 4.02757 2.70385 4.19592 2.70385 4.29737C2.80945 4.66861 4.2485 5.14022 5.58307 5.27512C5.96951 5.30857 6.42561 5.34311 6.60085 5.37656C6.9873 5.41002 9.48008 5.41002 10.2867 5.34311C12.4986 5.20821 14.2533 4.63516 14.0781 4.09556C13.9376 3.72431 14.3937 3.96066 14.6398 4.39881C14.7454 4.6017 14.5342 4.93841 14.1129 5.1413C13.7613 5.34419 12.393 5.71435 11.8661 5.74889C11.6909 5.78234 11.2696 5.85033 10.9528 5.88378C10.2507 5.98523 6.45931 5.98523 5.68642 5.88378C4.49227 5.74889 4.14177 5.6809 3.33406 5.44563C2.42076 5.17583 1.85907 4.77113 1.92984 4.46788C1.92984 4.33298 2.10509 4.13009 2.31628 4.02973L2.31853 4.02757Z" fill="#F5DFA5"/>
<path id="Path_3" fill-rule="evenodd" clip-rule="evenodd" d="M8.60159 3.08328C9.16328 2.94838 10.2867 2.98183 10.8135 3.15127C11.9021 3.52251 11.9021 4.43335 10.8135 4.66861C9.86539 4.83697 8.74201 4.63516 8.74201 4.23046C8.74201 4.02757 9.12846 3.96066 9.4093 4.12902C9.72497 4.36536 10.463 4.33191 10.7439 4.09556C11.0595 3.85922 10.9551 3.69086 10.3574 3.58942C9.7598 3.48797 8.81279 3.72432 7.89948 4.16247C7.23219 4.46573 6.98617 4.53372 6.38966 4.56717C5.61677 4.56717 5.23145 4.46573 4.91466 4.09448C4.73941 3.92613 4.73941 3.85814 4.80906 3.62179C5.02026 3.25055 6.07286 3.04874 6.52896 3.31854C6.77498 3.4869 6.59973 3.55488 6.00209 3.55488C5.29998 3.52143 5.01913 3.68978 5.26515 3.92613C5.47635 4.19593 6.31888 4.12902 6.9154 3.82468C8.00395 3.28509 8.21403 3.18364 8.60047 3.0822L8.60159 3.08328Z" fill="white"/>
</g>
</g>
</svg>
