<svg width="16" height="16" viewBox="0 0 16 16" fill="none" xmlns="http://www.w3.org/2000/svg">
<g id="coffee">
<g id="Group 2">
<path id="Path" fill-rule="evenodd" clip-rule="evenodd" d="M3.25801 6.33293C3.2014 6.03593 3.23015 5.98241 3.31463 6.09033C3.42697 6.25264 4.38229 6.62992 4.77502 6.68431C4.91522 6.71108 5.11204 6.73871 5.22438 6.76547C6.01074 6.95454 9.43749 7.00807 10.5043 6.87339C11.8523 6.71108 12.8076 6.44171 13.1159 6.17148C13.3127 6.00917 13.3127 6.00917 13.3127 6.14472C13.3127 6.44171 12.8912 7.70998 12.6108 8.32987C12.4419 8.65363 12.077 9.21999 11.7678 9.6249C11.4587 10.0298 11.1495 10.5426 11.0938 10.7585C10.7568 11.6762 10.0261 12 8.2575 12C6.51581 12 5.81392 11.703 5.47691 10.8129C5.39243 10.597 5.05542 10.0307 4.74627 9.599C4.40925 9.16732 4.07224 8.65449 3.9599 8.46542C3.87542 8.27634 3.76308 8.11489 3.76308 8.11489C3.73522 8.11489 3.65075 8.22281 3.56627 8.33073C3.36945 8.62773 3.34159 9.24848 3.50965 9.65253C3.70647 10.111 4.29602 10.597 4.71751 10.6506C5.25134 10.7585 4.9988 10.8932 4.29602 10.9208C3.76219 10.9476 3.67771 10.9208 3.39731 10.705C2.80776 10.3 2.66667 10.0307 2.66667 9.32877C2.66667 8.81594 2.69453 8.68126 2.89134 8.38426C3.00368 8.22195 3.2005 7.97935 3.34069 7.84466L3.59323 7.65559L3.45303 7.16952C3.36855 6.92692 3.28408 6.54877 3.25622 6.33293H3.25801Z" fill="#BD733D"/>
<path id="Path_2" fill-rule="evenodd" clip-rule="evenodd" d="M3.45483 4.82206C3.79184 4.60622 3.93204 4.57946 3.8197 4.76767C3.76308 4.82206 3.76308 4.95674 3.76308 5.0379C3.84756 5.33489 4.9988 5.71218 6.06646 5.8201C6.37561 5.84686 6.74049 5.87449 6.88068 5.90125C7.18984 5.92802 9.18406 5.92802 9.82933 5.87449C11.5989 5.76657 13.0026 5.30813 12.8624 4.87645C12.7501 4.57946 13.115 4.76853 13.3118 5.11905C13.3963 5.28136 13.2273 5.55073 12.8903 5.71304C12.609 5.87535 11.5144 6.17148 11.0929 6.19911C10.9527 6.22587 10.6157 6.28027 10.3623 6.30703C9.80057 6.38818 6.76745 6.38818 6.14914 6.30703C5.19382 6.19911 4.91342 6.14472 4.26726 5.95651C3.53661 5.74067 3.08726 5.41691 3.14388 5.17431C3.14388 5.06639 3.28408 4.90408 3.45303 4.82378L3.45483 4.82206Z" fill="#F5DFA5"/>
<path id="Path_3" fill-rule="evenodd" clip-rule="evenodd" d="M8.48127 4.06663C8.93062 3.95871 9.82933 3.98547 10.2508 4.12102C11.1217 4.41801 11.1217 5.14668 10.2508 5.33489C9.49231 5.46958 8.59361 5.30813 8.59361 4.98437C8.59361 4.82206 8.90276 4.76853 9.12744 4.90322C9.37998 5.09229 9.97042 5.06553 10.1951 4.87645C10.4476 4.68738 10.3641 4.55269 9.88595 4.47154C9.40784 4.39038 8.65023 4.57946 7.91958 4.92998C7.38575 5.17258 7.18894 5.22698 6.71173 5.25374C6.09342 5.25374 5.78516 5.17258 5.53173 4.87559C5.39153 4.74091 5.39153 4.68651 5.44725 4.49744C5.61621 4.20045 6.45829 4.039 6.82317 4.25484C7.01998 4.38952 6.87978 4.44391 6.40167 4.44391C5.83999 4.41715 5.61531 4.55183 5.81213 4.74091C5.98108 4.95674 6.65511 4.90322 7.13232 4.65975C8.00316 4.22807 8.17122 4.14692 8.48037 4.06576L8.48127 4.06663Z" fill="white"/>
</g>
</g>
</svg>
