<svg width="16" height="16" viewBox="0 0 16 16" fill="none" xmlns="http://www.w3.org/2000/svg">
<g id="csharp">
<g id="Group">
<mask id="mask0" mask-type="alpha" maskUnits="userSpaceOnUse" x="0" y="0" width="16" height="16">
<circle id="Ellipse" cx="8" cy="8" r="8" fill="#212431"/>
</mask>
<g mask="url(#mask0)">
<circle id="Ellipse_2" cx="8" cy="8" r="8" fill="#2C303F"/>
</g>
</g>
<path id="Shape" fill-rule="evenodd" clip-rule="evenodd" d="M3.75753 13H5.8549L6.41429 10.1034H8.51166L7.95226 13H10.0496L10.609 10.1034H12.8929V8.61028H10.982L11.3549 6.79993H13.5V5.30676H11.6353L12.241 2.5H10.1899L9.58421 5.30676H7.48685L8.09249 2.5H5.99512L5.43572 5.30676H3.15188V6.79993H5.11052L4.73759 8.61028H2.5V10.1034H4.36466L3.75753 13ZM8.88609 8.61028H6.78872L7.16165 6.79993H9.25902L8.88609 8.61028Z" fill="#6A9FB5"/>
</g>
</svg>
