<svg width="16" height="16" viewBox="0 0 16 16" fill="none" xmlns="http://www.w3.org/2000/svg">
<g id="csharp">
<g id="Group 2">
<g id="Group">
<mask id="mask0" mask-type="alpha" maskUnits="userSpaceOnUse" x="2" y="2" width="12" height="12">
<circle id="Ellipse" cx="8" cy="8" r="6" fill="#212431"/>
</mask>
<g mask="url(#mask0)">
<circle id="Ellipse_2" cx="8" cy="8" r="6" fill="#2C303F"/>
</g>
</g>
<path id="Shape" fill-rule="evenodd" clip-rule="evenodd" d="M5.35535 11.4286H6.6628L7.01151 9.53696H8.31896L7.97025 11.4286H9.2777L9.62641 9.53696H11.0501V8.56183H9.85889L10.0914 7.37956H11.4286V6.40443H10.2662L10.6437 4.57144H9.36511L8.98757 6.40443H7.68012L8.05766 4.57144H6.75021L6.40149 6.40443H4.9778V7.37956H6.19877L5.9663 8.56183H4.57143V9.53696H5.73382L5.35535 11.4286ZM8.55237 8.56183H7.24492L7.4774 7.37956H8.78485L8.55237 8.56183Z" fill="#6A9FB5"/>
</g>
</g>
</svg>
