<svg width="16" height="16" viewBox="0 0 16 16" fill="none" xmlns="http://www.w3.org/2000/svg">
<g id="css">
<path id="Vector" d="M2.96093 1.00003C2.45093 1.00003 2 1.42309 2 1.91725L3.06407 11.1687C3.11218 11.5387 3.29416 11.7457 3.6218 11.9315L7.6532 13.9109C7.906 14.0195 8.17307 14.0395 8.4641 13.9109L12.4859 11.9315C12.8157 11.7668 13.0121 11.425 12.9968 11.0657L14 1.89146C14 1.42725 13.5818 1 13.0718 1L2.96093 1.00003ZM5.93753 7.9866C5.93582 8.725 5.92871 8.93996 6.09218 9.1049C6.25963 9.23017 6.55896 9.2499 7.03913 9.24536V9.95665H6.22823C5.49221 9.94073 4.661 9.83925 4.66253 8.78684C4.66256 8.14896 4.70548 7.75223 4.46093 7.51864C4.26817 7.34062 3.84929 7.31117 3.50003 7.33146V6.62481C3.97976 6.63923 4.30834 6.58161 4.46093 6.44227C4.9469 5.99849 4.29585 4.80682 5.03753 4.2476C5.42728 3.93632 6.12461 3.95785 7.03913 3.96682V4.67812C6.55572 4.66616 6.19916 4.70587 6.09218 4.81858C5.74719 5.15555 6.1356 6.10515 5.76878 6.65296C5.65658 6.80286 5.46188 6.90424 5.18753 6.9571C5.78322 7.06828 5.94218 7.41423 5.93753 7.9866ZM10.8125 6.9571C10.5382 6.90424 10.3435 6.80286 10.2313 6.65296C9.86446 6.10515 10.2529 5.15555 9.90788 4.81858C9.8009 4.70587 9.44434 4.66616 8.96093 4.67812V3.96682C9.87545 3.95785 10.5728 3.93632 10.9625 4.2476C11.7042 4.80682 11.0532 5.99849 11.5391 6.44227C11.6917 6.58161 12.0203 6.63923 12.5 6.62481V7.33146C12.1508 7.31117 11.7319 7.34062 11.5391 7.51864C11.2946 7.75223 11.3375 8.14896 11.3375 8.78684C11.3391 9.83925 10.5078 9.94073 9.77183 9.95665H8.96093L8.96093 9.24536C9.4411 9.2499 9.74043 9.23017 9.90788 9.1049C10.0713 8.93996 10.0642 8.725 10.0625 7.9866C10.0579 7.41423 10.2168 7.06828 10.8125 6.9571Z" fill="#81C5DA"/>
</g>
</svg>
