<svg width="16" height="16" viewBox="0 0 16 16" fill="none" xmlns="http://www.w3.org/2000/svg">
<path d="M8.21926 7.95114C8.24219 7.10156 7.60156 5.88281 5.19028 5.99627L4.12899 5.99788L4.12899 9.99895L5.2266 9.99734C6.50781 9.99219 8.13281 9.72656 8.21926 7.95114ZM12.8543 3.51957H3.14568C2.51275 3.51957 2 4.08894 2 4.79184V11.2082C2 11.9106 2.51275 12.4805 3.14568 12.4805H12.8543C13.4872 12.4805 14 11.9105 14 11.2082V4.79184C14 4.08894 13.4872 3.51957 12.8543 3.51957ZM9.21058 5.70091C10.3704 4.78312 11.5578 5.39139 11.9883 6.23227C12.4167 7.06913 11.9021 8.47921 10.2986 8.44199C10.0859 9.61719 8.94531 11.3672 5.69662 11.2301L3.39191 11.2301C3.23516 11.2121 3.12911 11.1421 3.13767 10.9545L3.13019 5.00122C3.13072 4.88478 3.22526 4.7881 3.34597 4.77315L5.83923 4.76941C7.42057 4.77609 8.34515 5.01469 9.21058 5.70091ZM12.0987 5.55151C11.7282 5.3556 11.7282 4.86317 12.0987 4.66726C12.4693 4.47135 12.935 4.71757 12.935 5.10938C12.935 5.5012 12.4693 5.74742 12.0987 5.55151Z" fill="#D46C6C"/>
</svg>
