<svg width="16" height="16" viewBox="0 0 16 16" fill="none" xmlns="http://www.w3.org/2000/svg">
<g clip-path="url(#clip0)">
<path fill-rule="evenodd" clip-rule="evenodd" d="M6.72 3.3H7.92V4.5H6.72V3.3ZM12.466 7.32927C11.9663 6.85163 11.8296 5.42886 12.466 4.79878L12.6553 4.58537L12.8446 4.76829C13.4546 5.23577 13.8017 5.76423 13.8859 6.35366C14.7345 6.10434 15.3579 6.26747 16 6.65854C15.5836 7.49904 14.9421 8.02613 13.5072 7.96951C12.2082 11.096 9.41573 12.9695 5.27164 13C3.08389 13 1.51671 12.2378 0.570091 10.6524C0.0440429 9.71849 -0.0672987 9.0456 0.0336731 7.7561H1.42205L1.70604 7.78658H3.12597H3.34684H4.76677H4.98765H6.40758H6.62846H8.01684H8.23771H9.65765L9.94163 7.7561C11.0663 7.78761 11.765 7.72047 12.466 7.32927ZM3 6.5H1.8V7.7H3V6.5ZM3.45 6.5H4.65V7.7H3.45V6.5ZM6.30001 6.5H5.10001V7.7H6.30001V6.5ZM6.72 6.5H7.92V7.7H6.72V6.5ZM4.65 4.9H3.45V6.1H4.65V4.9ZM5.10001 4.9H6.30001V6.1H5.10001V4.9ZM7.92 4.9H6.72V6.1H7.92V4.9ZM9.55001 6.5H8.35001V7.7H9.55001V6.5Z" fill="#5F7CE3"/>
</g>
<defs>
<clipPath id="clip0">
<rect width="16" height="16" fill="white"/>
</clipPath>
</defs>
</svg>
