<svg width="16" height="16" viewBox="0 0 16 16" fill="none" xmlns="http://www.w3.org/2000/svg">
<path d="M12.466 7.32927C11.9663 6.85163 11.8296 5.42886 12.466 4.79878L12.6553 4.58537L12.8446 4.76829C13.4546 5.23577 13.8017 5.76423 13.8859 6.35366C14.7345 6.10434 15.3579 6.26747 16 6.65854C15.5836 7.49904 14.9421 8.02613 13.5072 7.96951C12.2082 11.096 9.41573 12.9695 5.27164 13C3.08389 13 1.51671 12.2378 0.570091 10.6524C0.044043 9.71849 -0.0672987 9.0456 0.0336731 7.7561H1.42205V6.14024H3.06286V4.55488H6.34447V3H8.30082V6.14024H9.94163V7.7561C11.0663 7.78761 11.765 7.72047 12.466 7.32927ZM2.90509 6.5061H2.99975V7.66463H2.90509V6.5061ZM2.68421 6.5061H2.81043V7.66463H2.68421V6.5061ZM2.46333 6.5061H2.58955V7.66463H2.46333V6.5061ZM2.24245 6.5061H2.36867V7.66463H2.24245V6.5061ZM2.05313 6.5061H2.14779V7.66463H2.05313V6.5061ZM1.83225 6.5061H1.92691V7.66463H1.83225V6.5061ZM1.70604 6.41463V7.78658H3.12597V6.41463H1.70604ZM4.5459 4.95122H4.64056V6.07927H4.5459V4.95122ZM4.32502 4.95122H4.41968V6.07927H4.32502V4.95122ZM4.10414 4.95122H4.23036V6.07927H4.10414V4.95122ZM3.88326 4.95122H4.00948V6.07927H3.88326V4.95122ZM3.66238 4.95122H3.7886V6.07927H3.66238V4.95122ZM3.47306 4.95122H3.56772V6.07927H3.47306V4.95122ZM3.34684 4.82927V6.20122H4.76677V4.82927H3.34684ZM4.5459 6.5061H4.64056V7.66463H4.5459V6.5061ZM4.32502 6.5061H4.41968V7.66463H4.32502V6.5061ZM4.10414 6.5061H4.23036V7.66463H4.10414V6.5061ZM3.88326 6.5061H4.00948V7.66463H3.88326V6.5061ZM3.66238 6.5061H3.7886V7.66463H3.66238V6.5061ZM3.47306 6.5061H3.56772V7.66463H3.47306V6.5061ZM3.34684 6.41463V7.78658H4.76677V6.41463H3.34684ZM6.15515 6.5061H6.28137V7.66463H6.15515V6.5061ZM5.96583 6.5061H6.06049V7.66463H5.96583V6.5061ZM5.74495 6.5061H5.83961V7.66463H5.74495V6.5061ZM5.52407 6.5061H5.65029V7.66463H5.52407V6.5061ZM5.30319 6.5061H5.42941V7.66463H5.30319V6.5061ZM5.08231 6.5061H5.20853V7.66463H5.08231V6.5061ZM4.98765 6.41463V7.78658H6.40758V6.41463H4.98765ZM6.15515 4.95122H6.28137V6.07927H6.15515V4.95122ZM5.96583 4.95122H6.06049V6.07927H5.96583V4.95122ZM5.74495 4.95122H5.83961V6.07927H5.74495V4.95122ZM5.52407 4.95122H5.65029V6.07927H5.52407V4.95122ZM5.30319 4.95122H5.42941V6.07927H5.30319V4.95122ZM5.08231 4.95122H5.20853V6.07927H5.08231V4.95122ZM4.98765 4.82927V6.20122H6.40758V4.82927H4.98765ZM7.79596 6.5061H7.92217V7.66463H7.79596V6.5061ZM7.57508 6.5061H7.7013V7.66463H7.57508V6.5061ZM7.38576 6.5061H7.48042V7.66463H7.38576V6.5061ZM7.16488 6.5061H7.25954V7.66463H7.16488V6.5061ZM6.944 6.5061H7.07022V7.66463H6.944V6.5061ZM6.72312 6.5061H6.84934V7.66463H6.72312V6.5061ZM6.62846 6.41463V7.78658H8.01684V6.41463H6.62846ZM7.79596 4.95122H7.92217V6.07927H7.79596V4.95122ZM7.57508 4.95122H7.7013V6.07927H7.57508V4.95122ZM7.38576 4.95122H7.48042V6.07927H7.38576V4.95122ZM7.16488 4.95122H7.25954V6.07927H7.16488V4.95122ZM6.944 4.95122H7.07022V6.07927H6.944V4.95122ZM6.72312 4.95122H6.84934V6.07927H6.72312V4.95122ZM6.62846 4.82927V6.20122H8.01684V4.82927H6.62846ZM7.79596 3.36585H7.92217V4.4939H7.79596V3.36585ZM7.57508 3.36585H7.7013V4.4939H7.57508V3.36585ZM7.38576 3.36585H7.48042V4.4939H7.38576V3.36585ZM7.16488 3.36585H7.25954V4.4939H7.16488V3.36585ZM6.944 3.36585H7.07022V4.4939H6.944V3.36585ZM6.72312 3.36585H6.84934V4.4939H6.72312V3.36585ZM6.62846 3.2439V4.61585H8.01684V3.2439H6.62846ZM9.43677 6.5061H9.53143V7.66463H9.43677V6.5061ZM9.21589 6.5061H9.34211V7.66463H9.21589V6.5061ZM8.99501 6.5061H9.12123V7.66463H8.99501V6.5061ZM8.80569 6.5061H8.90035V7.66463H8.80569V6.5061ZM8.58481 6.5061H8.67947V7.66463H8.58481V6.5061ZM8.36393 6.5061H8.49015V7.66463H8.36393V6.5061ZM8.23772 6.41463V7.78658H9.65765V6.41463H8.23772ZM4.67211 9.98171C4.56693 9.98171 4.47753 10.0224 4.4039 10.1037C4.33028 10.185 4.29346 10.2764 4.29346 10.378C4.29346 10.4797 4.33028 10.5661 4.4039 10.6372C4.47753 10.7083 4.56693 10.7439 4.67211 10.7439C4.77729 10.7439 4.8667 10.7083 4.94032 10.6372C5.01395 10.5661 5.05076 10.4797 5.05076 10.378C5.05076 10.2967 5.03498 10.2307 5.00343 10.1799C4.97188 10.1291 4.92454 10.0833 4.86144 10.0427C4.79833 10.002 4.73522 9.98171 4.67211 9.98171ZM4.67211 10.1037C4.71418 10.1037 4.74574 10.1138 4.76677 10.1341C4.7247 10.1545 4.70367 10.185 4.70367 10.2256C4.70367 10.2866 4.74574 10.3171 4.82988 10.3171C4.87195 10.3171 4.90351 10.2967 4.92454 10.2561C4.94558 10.2967 4.9561 10.3374 4.9561 10.378C4.9561 10.561 4.86144 10.6524 4.67211 10.6524C4.48279 10.6524 4.38813 10.561 4.38813 10.378C4.38813 10.1951 4.48279 10.1037 4.67211 10.1037ZM5.71339 12.7256C4.85092 12.3191 4.25139 11.75 3.91482 11.0183C3.5572 11.1199 3.12597 11.1809 2.6211 11.2012H1.26428C2.31608 12.1972 3.65187 12.7053 5.27164 12.7256H5.71339Z" fill="#5F7CE3"/>
</svg>
