<svg width="16" height="16" viewBox="0 0 16 16" fill="none" xmlns="http://www.w3.org/2000/svg">
<path d="M2.17875 2.93665H0V13.0623H2.50906C1.26712 11.7464 0.542315 9.9285 0.54221 7.75912C0.542116 5.84103 1.14255 4.19145 2.17875 2.93665ZM13.979 13.0633C14.5143 12.4906 14.9933 11.8155 15.4278 11.044L13.0173 9.83849C12.1708 11.2149 10.9326 12.4815 9.22077 12.4901C6.72886 12.4815 5.74999 10.3512 5.75535 7.60857H15.0661C15.0785 7.29889 15.0661 7.00582 15.0661 7.00582C15.1267 5.37437 14.6943 4.00446 13.9078 2.93665H16V13.0628L13.979 13.0633ZM5.9059 5.2581C6.00877 4.0167 6.98818 3.18142 8.13582 3.17874C9.2915 3.18142 10.1262 4.01616 10.1546 5.2581H5.9059Z" fill="#D46C6C"/>
</svg>
