<svg width="16" height="16" viewBox="0 0 16 16" fill="none" xmlns="http://www.w3.org/2000/svg">
<g id="firebase">
<g id="firebase_2">
<path id="Path" fill-rule="evenodd" clip-rule="evenodd" d="M3.94501 9.83652L5.12751 2.23052C5.14506 2.11488 5.23484 2.02355 5.35016 2.00401C5.46548 1.98446 5.58033 2.04112 5.63501 2.14452L6.90651 4.53002L3.94501 9.83652Z" fill="#AC4142"/>
<path id="Path_2" fill-rule="evenodd" clip-rule="evenodd" d="M12.3425 11.682L11.2165 4.68251C11.1996 4.5825 11.1284 4.50023 11.0318 4.4692C10.9353 4.43817 10.8295 4.46355 10.7575 4.53501L3.6575 11.682L7.586 13.896C7.83239 14.0344 8.13311 14.0344 8.3795 13.896L12.3425 11.682Z" fill="#F4BF75"/>
<path id="Path_3" fill-rule="evenodd" clip-rule="evenodd" d="M9.15001 5.57401L8.24001 3.83301C8.19322 3.74377 8.10078 3.68787 8.00001 3.68787C7.89925 3.68787 7.80681 3.74377 7.76001 3.83301L3.76501 10.992L9.15001 5.57401Z" fill="#EE9D5C"/>
</g>
</g>
</svg>
