<svg width="16" height="16" viewBox="0 0 16 16" fill="none" xmlns="http://www.w3.org/2000/svg">
<path fill-rule="evenodd" clip-rule="evenodd" d="M14 7H9C7.89543 7 7 7.89543 7 9V13.8H3.2C2.88174 13.8 2.57652 13.6736 2.35147 13.4485C2.12643 13.2235 2 12.9183 2 12.6V4.2C2 3.88174 2.12643 3.57652 2.35147 3.35147C2.57652 3.12643 2.88174 3 3.2 3H6.2L7.4 4.8H12.8C13.1183 4.8 13.4235 4.92643 13.6485 5.15147C13.8736 5.37652 14 5.68174 14 6V7Z" fill="#6B7394"/>
<rect x="8" y="8" width="7" height="7" rx="1" fill="#1D2A58"/>
<path fill-rule="evenodd" clip-rule="evenodd" d="M14.1245 9.36471L12.8737 8.875L10.6903 10.9516L9.37545 9.97411L8.8755 10.2197L8.875 12.7832L9.37261 13.027L10.6864 12.0503L12.8751 14.125L14.125 13.6372L14.1245 9.36471ZM12.7348 10.5735L11.5 11.4964L12.7353 12.4265L12.7348 10.5735ZM9.49339 12.0404L9.49265 10.9595L10.1103 11.4963L9.49339 12.0404Z" fill="#5F7CE3"/>
</svg>
