<svg width="16" height="16" viewBox="0 0 16 16" fill="none" xmlns="http://www.w3.org/2000/svg">
<path fill-rule="evenodd" clip-rule="evenodd" d="M14 7H9C7.89543 7 7 7.89543 7 9V13.8H3.2C2.88174 13.8 2.57652 13.6736 2.35147 13.4485C2.12643 13.2235 2 12.9183 2 12.6V4.2C2 3.88174 2.12643 3.57652 2.35147 3.35147C2.57652 3.12643 2.88174 3 3.2 3H6.2L7.4 4.8H12.8C13.1183 4.8 13.4235 4.92643 13.6485 5.15147C13.8736 5.37652 14 5.68174 14 6V7Z" fill="#3F445A"/>
<rect x="8" y="8" width="7" height="7" rx="1" fill="#212431"/>
<path d="M13.2164 12.9234C13.5247 13.3355 12.7012 13.635 12.3692 13.0394L11.9182 13.3011L11.9458 13.3469C12.1157 13.633 12.3811 13.8006 12.7398 13.8487C13.5251 13.9426 14.0378 13.4418 13.7595 12.7307C13.5618 12.324 13.0436 12.2471 12.7415 12.0466C12.5638 11.9431 12.6008 11.724 12.7435 11.6361C12.8545 11.5677 13.1095 11.5591 13.2409 11.8315L13.6724 11.5533C13.332 10.9397 12.5272 11.0633 12.286 11.3421C11.958 11.7274 12.0518 12.1575 12.3405 12.4338C12.5649 12.6487 12.9173 12.7217 13.2164 12.9234ZM11.1774 13.7921C11.426 13.6915 11.5719 13.4837 11.6105 13.1746C11.6138 13.1434 11.616 11.1466 11.616 11.1466H11.069L11.0651 13.1217C11.0523 13.2496 10.9759 13.3412 10.8642 13.3592C10.6736 13.3899 10.5465 13.3344 10.4141 13.0865L9.96881 13.3557C10.1597 13.8044 10.735 13.9692 11.1774 13.7921ZM9.18049 8.6875H13.8195C14.0926 8.6875 14.3125 8.90737 14.3125 9.18049V13.8195C14.3125 14.0926 14.0926 14.3125 13.8195 14.3125H9.18049C8.90737 14.3125 8.6875 14.0926 8.6875 13.8195V9.18049C8.6875 8.90737 8.90737 8.6875 9.18049 8.6875Z" fill="#F5DFA5"/>
</svg>
