<svg width="16" height="16" viewBox="0 0 16 16" fill="none" xmlns="http://www.w3.org/2000/svg">
<path fill-rule="evenodd" clip-rule="evenodd" d="M14 7H9C7.89543 7 7 7.89543 7 9V13.8H3.2C2.88174 13.8 2.57652 13.6736 2.35147 13.4485C2.12643 13.2235 2 12.9183 2 12.6V4.2C2 3.88174 2.12643 3.57652 2.35147 3.35147C2.57652 3.12643 2.88174 3 3.2 3H6.2L7.4 4.8H12.8C13.1183 4.8 13.4235 4.92643 13.6485 5.15147C13.8736 5.37652 14 5.68174 14 6V7Z" fill="#3F445A"/>
<rect x="8" y="8" width="7" height="7" rx="1" fill="#212431"/>
<rect x="9" y="9" width="2" height="2" rx="1" fill="#5F7CE3"/>
<rect x="12" y="9" width="2" height="2" rx="1" fill="#B2E4AE"/>
<rect x="12" y="12" width="2" height="2" rx="1" fill="#D46C6C"/>
<rect x="9" y="12" width="2" height="2" rx="1" fill="#D491B9"/>
</svg>
