<svg width="16" height="16" viewBox="0 0 16 16" fill="none" xmlns="http://www.w3.org/2000/svg">
<path fill-rule="evenodd" clip-rule="evenodd" d="M12.7071 11.7071C12.8946 11.5196 13 11.2652 13 11V5.5C13 5.23478 12.8946 4.98043 12.7071 4.79289C12.5196 4.60536 12.2652 4.5 12 4.5H7.5L6.5 3H4C3.73478 3 3.48043 3.10536 3.29289 3.29289C3.10536 3.48043 3 3.73478 3 4V11C3 11.2652 3.10536 11.5196 3.29289 11.7071C3.48043 11.8946 3.73478 12 4 12H12C12.2652 12 12.5196 11.8946 12.7071 11.7071ZM6.5 8C6.22386 8 6 8.22386 6 8.5C6 8.77614 6.22386 9 6.5 9H9.5C9.77614 9 10 8.77614 10 8.5C10 8.22386 9.77614 8 9.5 8H6.5Z" fill="#6B7394"/>
</svg>
