<svg width="16" height="16" viewBox="0 0 16 16" fill="none" xmlns="http://www.w3.org/2000/svg">
<path fill-rule="evenodd" clip-rule="evenodd" d="M14 7H9C7.89543 7 7 7.89543 7 9V13.8H3.2C2.88174 13.8 2.57652 13.6736 2.35147 13.4485C2.12643 13.2235 2 12.9183 2 12.6V4.2C2 3.88174 2.12643 3.57652 2.35147 3.35147C2.57652 3.12643 2.88174 3 3.2 3H6.2L7.4 4.8H12.8C13.1183 4.8 13.4235 4.92643 13.6485 5.15147C13.8736 5.37652 14 5.68174 14 6V7Z" fill="#6B7394"/>
<rect x="8" y="8" width="7" height="7" rx="1" fill="#5F7CE3"/>
<path d="M10.7536 12.8272C10.6427 12.9257 10.4755 12.9257 10.3646 12.8272L9.09144 11.6959C8.96952 11.5876 8.96952 11.4124 9.09144 11.3041L10.3646 10.1728C10.4755 10.0743 10.6427 10.0743 10.7536 10.1728V10.1728C10.8847 10.2893 10.8847 10.4942 10.7536 10.6107L9.75278 11.5L10.7536 12.3893C10.8847 12.5058 10.8847 12.7107 10.7536 12.8272V12.8272Z" fill="#212431" stroke="#212431" stroke-width="0.5"/>
<path d="M12.6354 12.8272C12.5245 12.9257 12.3573 12.9257 12.2464 12.8272V12.8272C12.1153 12.7107 12.1153 12.5058 12.2464 12.3893L13.2472 11.5L12.2464 10.6107C12.1153 10.4942 12.1153 10.2893 12.2464 10.1728V10.1728C12.3573 10.0743 12.5245 10.0743 12.6354 10.1728L13.9086 11.3041C14.0305 11.4124 14.0305 11.5876 13.9086 11.6959L12.6354 12.8272Z" fill="#212431" stroke="#212431" stroke-width="0.5"/>
</svg>
