<svg width="16" height="16" viewBox="0 0 16 16" fill="none" xmlns="http://www.w3.org/2000/svg">
<path fill-rule="evenodd" clip-rule="evenodd" d="M13.6485 13.4485C13.8736 13.2235 14 12.9183 14 12.6V6C14 5.68174 13.8736 5.37652 13.6485 5.15147C13.4235 4.92643 13.1183 4.8 12.8 4.8H7.4L6.2 3H3.2C2.88174 3 2.57652 3.12643 2.35147 3.35147C2.12643 3.57652 2 3.88174 2 4.2V12.6C2 12.9183 2.12643 13.2235 2.35147 13.4485C2.57652 13.6736 2.88174 13.8 3.2 13.8H12.8C13.1183 13.8 13.4235 13.6736 13.6485 13.4485ZM5.65218 9.10001C5.37604 9.10001 5.15218 9.32386 5.15218 9.60001C5.15218 9.87615 5.37604 10.1 5.65218 10.1H10.3478C10.624 10.1 10.8478 9.87615 10.8478 9.60001C10.8478 9.32386 10.624 9.10001 10.3478 9.10001H5.65218Z" fill="#6B7394"/>
</svg>
