<svg width="16" height="16" viewBox="0 0 16 16" fill="none" xmlns="http://www.w3.org/2000/svg">
<path fill-rule="evenodd" clip-rule="evenodd" d="M14 7H9C7.89543 7 7 7.89543 7 9V13.8H3.2C2.88174 13.8 2.57652 13.6736 2.35147 13.4485C2.12643 13.2235 2 12.9183 2 12.6V4.2C2 3.88174 2.12643 3.57652 2.35147 3.35147C2.57652 3.12643 2.88174 3 3.2 3H6.2L7.4 4.8H12.8C13.1183 4.8 13.4235 4.92643 13.6485 5.15147C13.8736 5.37652 14 5.68174 14 6V7Z" fill="#3F445A"/>
<rect x="8" y="8" width="7" height="7" rx="1" fill="#BD733D"/>
<path d="M11.958 11.5414L11.7024 11.67L11.6925 14.0008L13.9943 12.8457L14.0042 10.5148L11.958 11.5414Z" fill="#F5DFA5"/>
<path d="M13.8555 10.2071L11.5 9.00001L10.5 9.5L9.10846 10.2071L10.6096 10.9423L11.491 11.3942L12.3715 10.9529L13.8555 10.2071Z" fill="#F5DFA5"/>
<path d="M10.2933 11.7366L9.87133 11.5439L9.87385 10.9506L9.00421 10.506L8.99438 12.8203L11.2698 13.9866L11.2796 11.6723L10.2957 11.1692L10.2933 11.7366Z" fill="#F5DFA5"/>
</svg>
