<svg width="16" height="16" viewBox="0 0 16 16" fill="none" xmlns="http://www.w3.org/2000/svg">
<g id="git">
<mask id="mask0" mask-type="alpha" maskUnits="userSpaceOnUse" x="0" y="0" width="16" height="16">
<circle id="Ellipse" cx="8" cy="8" r="8" fill="#212431"/>
</mask>
<g mask="url(#mask0)">
<circle id="Ellipse_2" cx="8" cy="8" r="8" fill="#FF5833"/>
<path id="Shape" fill-rule="evenodd" clip-rule="evenodd" d="M18.6244 5.65642L7.33531 -2.63125C7.1074 -2.87708 6.82223 -3 6.47979 -3C6.13736 -3 5.84376 -2.87708 5.59901 -2.63125L3.88796 -0.920507L6.07224 1.26338C6.31812 1.17582 6.57691 1.16292 6.84861 1.22466C7.12031 1.28639 7.3617 1.42222 7.57277 1.63213C7.76588 1.82521 7.89331 2.05757 7.95506 2.32923C8.01681 2.60088 8.0039 2.8686 7.91633 3.1324L10.0215 5.23715C10.2673 5.14959 10.5261 5.13219 10.7978 5.18495C11.0695 5.23771 11.3109 5.36905 11.522 5.57896C11.8027 5.8596 11.943 6.20141 11.943 6.6044C11.943 7.00739 11.8027 7.3492 11.522 7.62983C11.2413 7.91046 10.8994 8.05078 10.4964 8.05078C10.0933 8.05078 9.75143 7.91046 9.47075 7.62983C9.25968 7.41879 9.12832 7.16903 9.07667 6.88054C9.02502 6.59205 9.05141 6.31591 9.15582 6.05211L7.18206 4.0787V9.26143C7.25279 9.29623 7.31847 9.33552 7.3791 9.3793C7.43973 9.42308 7.50541 9.47135 7.57614 9.52411C7.85682 9.80474 7.99716 10.1466 7.99716 10.5495C7.99716 10.9525 7.85682 11.2943 7.57614 11.575C7.29546 11.8736 6.95358 12.0229 6.55052 12.0229C6.14746 12.0229 5.80559 11.8736 5.52491 11.575C5.22626 11.2943 5.07694 10.9525 5.07694 10.5495C5.07694 10.1466 5.22626 9.80474 5.52491 9.52411C5.59564 9.45339 5.6703 9.39221 5.74889 9.34057C5.82748 9.28893 5.91057 9.24516 5.99814 9.20923V3.99956C5.91057 3.96476 5.82748 3.92098 5.74889 3.86822C5.6703 3.81546 5.59564 3.75428 5.52491 3.68469C5.29699 3.47365 5.15665 3.2194 5.10388 2.92193C5.05111 2.62445 5.08648 2.34382 5.20998 2.08002L3.05265 -0.0769229L-2.63118 5.63284C-2.87706 5.86072 -3 6.14584 -3 6.48821C-3 6.83059 -2.87706 7.11571 -2.63118 7.34358L5.65795 18.6312C5.88587 18.8771 6.17104 19 6.51347 19C6.85591 19 1.28851 18.6312 7.39426 18.6312C13.5 18.6312 18.6312 7.39578 18.6312 7.39578C18.8771 7.14995 19 6.86033 19 6.52694C19 6.19355 18.8771 5.90393 18.6312 5.6581L18.6244 5.65642Z" fill="#3F4459"/>
</g>
</g>
</svg>
