<svg width="16" height="16" viewBox="0 0 16 16" fill="none" xmlns="http://www.w3.org/2000/svg">
<g id="git">
<path id="Vector" d="M15.6982 7.28739L8.71233 0.301915C8.31029 -0.100455 7.65779 -0.100455 7.25526 0.301915L5.80471 1.75262L7.64476 3.59278C8.0725 3.44834 8.56282 3.54521 8.90365 3.88612C9.24627 4.22908 9.34244 4.7236 9.19442 5.15279L10.9679 6.92624C11.397 6.77839 11.892 6.87396 12.2346 7.21719C12.7136 7.69601 12.7136 8.47194 12.2346 8.95094C11.7555 9.43012 10.9796 9.43012 10.5003 8.95094C10.1402 8.59049 10.0511 8.06136 10.2335 7.61757L8.57954 5.96354L8.57936 10.316C8.69621 10.3738 8.80635 10.451 8.90365 10.5479C9.38256 11.0267 9.38256 11.8025 8.90365 12.282C8.42465 12.7609 7.64836 12.7609 7.16987 12.282C6.69096 11.8025 6.69096 11.0267 7.16987 10.5479C7.28827 10.4297 7.42515 10.3403 7.57131 10.2804V5.88749C7.42515 5.82774 7.28842 5.73895 7.16987 5.61996C6.80711 5.25746 6.71977 4.72505 6.90577 4.27957L5.09186 2.4653L0.301843 7.25507C-0.100614 7.65777 -0.100614 8.31027 0.301843 8.71264L7.28774 15.6981C7.68994 16.1005 8.34228 16.1005 8.74498 15.6981L15.6982 8.74505C16.1006 8.34251 16.1006 7.68976 15.6982 7.28739Z" fill="#D46C6C"/>
</g>
</svg>
