<svg width="16" height="16" viewBox="0 0 16 16" fill="none" xmlns="http://www.w3.org/2000/svg">
<g id="git">
<mask id="mask0" mask-type="alpha" maskUnits="userSpaceOnUse" x="0" y="0" width="16" height="16">
<circle id="Ellipse" cx="8" cy="8" r="8" fill="#212431"/>
</mask>
<g mask="url(#mask0)">
<circle id="Ellipse_2" cx="8" cy="8" r="8" fill="#3F4459"/>
<path id="Shape" fill-rule="evenodd" clip-rule="evenodd" d="M13.7628 7.46721L8.52757 2.2329C8.38362 2.07763 8.20351 2 7.98724 2C7.77096 2 7.58553 2.07763 7.43095 2.2329L6.35029 3.31336L7.72984 4.69266C7.88513 4.63736 8.04857 4.62921 8.22017 4.6682C8.39177 4.7072 8.54423 4.79298 8.67754 4.92556C8.7995 5.0475 8.87999 5.19426 8.91899 5.36583C8.95799 5.5374 8.94983 5.70649 8.89452 5.87309L10.2241 7.20241C10.3794 7.14711 10.5428 7.13612 10.7144 7.16944C10.886 7.20277 11.0385 7.28571 11.1718 7.41829C11.3491 7.59553 11.4377 7.81142 11.4377 8.06593C11.4377 8.32045 11.3491 8.53633 11.1718 8.71358C10.9945 8.89082 10.7786 8.97944 10.524 8.97944C10.2695 8.97944 10.0535 8.89082 9.87626 8.71358C9.74295 8.58029 9.65999 8.42254 9.62737 8.24034C9.59475 8.05814 9.61142 7.88373 9.67736 7.71712L8.43077 6.47076V9.74406C8.47545 9.76604 8.51693 9.79085 8.55522 9.8185C8.59351 9.84615 8.63499 9.87664 8.67967 9.90996C8.85694 10.0872 8.94558 10.3031 8.94558 10.5576C8.94558 10.8121 8.85694 11.028 8.67967 11.2052C8.50239 11.3938 8.28647 11.4881 8.03191 11.4881C7.77734 11.4881 7.56143 11.3938 7.38415 11.2052C7.19553 11.028 7.10122 10.8121 7.10122 10.5576C7.10122 10.3031 7.19553 10.0872 7.38415 9.90996C7.42883 9.8653 7.47598 9.82666 7.52562 9.79404C7.57525 9.76143 7.62773 9.73378 7.68304 9.7111V6.42077C7.62773 6.39879 7.57525 6.37115 7.52562 6.33782C7.47598 6.3045 7.42883 6.26586 7.38415 6.22191C7.24021 6.08862 7.15157 5.92804 7.11824 5.74016C7.08491 5.55229 7.10725 5.37504 7.18525 5.20844L5.82273 3.84615L2.23294 7.45232C2.07765 7.59624 2 7.77632 2 7.99256C2 8.20879 2.07765 8.38887 2.23294 8.53279L7.46818 13.7671C7.61213 13.9224 7.79224 14 8.00851 14C8.22478 14 8.41021 13.9224 8.56479 13.7671L13.7671 8.56576C13.9224 8.41049 14 8.22758 14 8.01702C14 7.80645 13.9224 7.62354 13.7671 7.46827V7.46827L13.7628 7.46721Z" fill="#D46C6C"/>
</g>
</g>
</svg>
