<svg width="16" height="16" viewBox="0 0 16 16" fill="none" xmlns="http://www.w3.org/2000/svg">
<g id="git">
<g id="Group">
<mask id="mask0" mask-type="alpha" maskUnits="userSpaceOnUse" x="1" y="1" width="14" height="14">
<circle id="Ellipse" cx="8" cy="8" r="7" fill="#FF5833"/>
</mask>
<g mask="url(#mask0)">
<path id="Shape" fill-rule="evenodd" clip-rule="evenodd" d="M17.2964 5.94936L7.4184 -1.30234C7.21897 -1.51745 6.96945 -1.625 6.66982 -1.625C6.37019 -1.625 6.11329 -1.51745 5.89913 -1.30234L4.40197 0.194556L6.31321 2.10546C6.52835 2.02885 6.75479 2.01755 6.99253 2.07157C7.23027 2.1256 7.44149 2.24444 7.62617 2.42812C7.79515 2.59706 7.90665 2.80038 7.96068 3.03807C8.01471 3.27577 8.00341 3.51003 7.92679 3.74085L9.76877 5.58251C9.98391 5.50589 10.2104 5.49067 10.4481 5.53683C10.6858 5.583 10.897 5.69792 11.0817 5.88159C11.3273 6.12715 11.4501 6.42623 11.4501 6.77885C11.4501 7.13146 11.3273 7.43055 11.0817 7.6761C10.8361 7.92166 10.537 8.04443 10.1843 8.04443C9.83164 8.04443 9.5325 7.92166 9.28691 7.6761C9.10222 7.49144 8.98728 7.2729 8.94209 7.02047C8.8969 6.76804 8.91998 6.52642 9.01134 6.2956L7.2843 4.56886V9.10375C7.34619 9.1342 7.40366 9.16858 7.45671 9.20689C7.50976 9.24519 7.56723 9.28743 7.62912 9.33359C7.87472 9.57915 7.99752 9.87823 7.99752 10.2308C7.99752 10.5835 7.87472 10.8825 7.62912 11.1281C7.38352 11.3894 7.08439 11.52 6.73171 11.52C6.37903 11.52 6.07989 11.3894 5.83429 11.1281C5.57298 10.8825 5.44232 10.5835 5.44232 10.2308C5.44232 9.87823 5.57298 9.57915 5.83429 9.33359C5.89619 9.27171 5.96151 9.21818 6.03028 9.173C6.09905 9.12782 6.17174 9.08951 6.24837 9.05808V4.49961C6.17174 4.46916 6.09905 4.43086 6.03028 4.38469C5.96151 4.33853 5.89619 4.285 5.83429 4.2241C5.63487 4.03944 5.51207 3.81697 5.4659 3.55668C5.41972 3.2964 5.45067 3.05084 5.55873 2.82002L3.67107 0.932692L-1.30228 5.92874C-1.51743 6.12813 -1.625 6.37761 -1.625 6.67719C-1.625 6.97676 -1.51743 7.22625 -1.30228 7.42564L5.95071 17.3023C6.15013 17.5174 6.39966 17.625 6.69929 17.625C6.99892 17.625 2.12745 17.3023 7.46997 17.3023C12.8125 17.3023 17.3023 7.47131 17.3023 7.47131C17.5174 7.2562 17.625 7.00279 17.625 6.71107C17.625 6.41936 17.5174 6.16594 17.3023 5.95084L17.2964 5.94936Z" fill="#D46C6C"/>
</g>
</g>
</g>
</svg>
