<svg width="16" height="16" viewBox="0 0 16 16" fill="none" xmlns="http://www.w3.org/2000/svg">
<g id="git">
<path id="Vector" d="M12.8114 7.5546L8.4452 3.18861C8.19393 2.93713 7.78612 2.93713 7.53454 3.18861L6.62794 4.09532L7.77798 5.24544C8.04531 5.15516 8.35177 5.2157 8.56478 5.42877C8.77892 5.64313 8.83903 5.95221 8.74651 6.22046L9.85492 7.32888C10.1231 7.23647 10.4325 7.2962 10.6466 7.51072C10.946 7.80999 10.946 8.29496 10.6466 8.59434C10.3472 8.89383 9.86226 8.89383 9.56272 8.59434C9.3376 8.36905 9.28193 8.03834 9.39594 7.76097L8.36221 6.72718L8.3621 9.44753C8.43513 9.48364 8.50397 9.53187 8.56478 9.59245C8.8641 9.89168 8.8641 10.3766 8.56478 10.6763C8.2654 10.9756 7.78023 10.9756 7.48117 10.6763C7.18185 10.3766 7.18185 9.89168 7.48117 9.59245C7.55517 9.51858 7.64072 9.4627 7.73207 9.42525V6.67965C7.64072 6.64231 7.55527 6.58681 7.48117 6.51244C7.25444 6.28587 7.19986 5.95312 7.31611 5.67468L6.18241 4.54075L3.18865 7.5344C2.93712 7.7861 2.93712 8.19391 3.18865 8.4454L7.55484 12.8114C7.80621 13.0629 8.21392 13.0629 8.46561 12.8114L12.8114 8.46565C13.0629 8.21406 13.0629 7.80609 12.8114 7.5546Z" fill="#D46C6C"/>
</g>
</svg>
