<svg width="16" height="16" viewBox="0 0 16 16" fill="none" xmlns="http://www.w3.org/2000/svg">
<g id="grunt">
<g id="grunt_2">
<path id="Shape" d="M2.80607 3.88055C2.80607 3.88055 3.08165 4.93516 3.12096 5.28676C3.16036 5.63826 2.41241 6.41946 2.41241 6.81006C2.41241 7.20071 2.56965 7.90376 3.43581 8.25536C4.30197 8.60691 4.41994 9.50522 4.41994 10.0522C4.41994 10.599 4.10505 11.6535 4.10505 11.6535C4.10505 11.6535 3.90831 14.2705 4.97106 14.7392C6.03381 15.2079 5.79773 15.2079 6.03381 15.2079C6.26995 15.2079 8.00208 15.9112 9.02552 15.6377C10.0491 15.3643 10.3244 15.0518 10.3244 15.0518C10.3244 15.0518 11.348 15.1299 11.6629 14.2314C11.9779 13.3331 12.1746 11.4583 12.0565 10.5989C11.9384 9.73948 11.781 8.60696 12.4894 8.21631C13.1982 7.82566 13.946 7.3571 13.8279 6.96641C13.7098 6.57576 13.0802 6.02891 13.0802 6.02891C13.0802 6.02891 12.9226 5.0525 13.0407 4.8181C13.1587 4.58375 13.8673 3.99771 13.4736 3.56815C13.0802 3.13854 12.3714 3.13854 12.3714 3.13854L11.4661 3.21655C11.4661 3.21655 9.93089 1.84954 7.92327 1.92764C5.91575 2.00574 4.65598 3.21655 4.65598 3.21655C4.65598 3.21655 3.98684 2.9822 3.39631 3.21655C2.80579 3.45099 2.68805 3.2165 2.80607 3.88055Z" fill="#F5DFA5"/>
<path id="Shape_2" fill-rule="evenodd" clip-rule="evenodd" d="M6.41041 8.13411C6.53913 7.82576 6.77414 7.24404 6.77414 7.24404V7.244L6.41154 7.19373C6.41154 7.19373 6.01409 7.31521 6.01409 7.62063C6.01409 8.34873 5.73794 8.63614 5.73794 8.63614C5.73794 8.63614 6.27072 8.46937 6.41041 8.13411ZM6.40301 9.6962C6.40304 9.69617 6.40305 9.69615 6.40305 9.69615V9.6961L6.40301 9.6962ZM6.40301 9.6962C6.39684 9.70556 5.62121 10.8822 5.05168 11.7182C4.96321 11.848 5.62349 11.857 5.62349 11.857L6.40301 9.6962Z" fill="#BD733D"/>
<path id="Shape_3" fill-rule="evenodd" clip-rule="evenodd" d="M4.53544 1.76944C3.98535 1.33718 3.1601 1.49655 3.1601 1.49655C3.57478 1.58602 3.60658 1.77392 3.66818 2.13783C3.68489 2.23661 3.70381 2.34836 3.73317 2.47463C3.87071 3.06612 4.31877 3.27222 4.31877 3.27222L5.2461 2.54287C5.2461 2.54287 5.08581 2.2016 4.53544 1.76944ZM5.16155 7.82311C6.05543 8.14161 6.53689 7.57293 6.53689 7.57293H6.53684C6.76608 7.18614 6.33078 6.64032 6.10149 6.5038C5.87216 6.36729 4.17577 5.73037 4.17577 6.04883C4.17577 6.36729 4.26743 7.50474 5.16155 7.82311Z" fill="#BD733D"/>
<path id="Shape_4" fill-rule="evenodd" clip-rule="evenodd" d="M5.99039 2.38661L5.99033 2.38664L5.99039 2.38657V2.38661ZM5.99033 2.38664C5.69244 2.79611 5.83184 3.16577 5.83184 3.16577C5.83184 3.16577 6.3239 3.97038 6.49151 4.48265C5.98879 4.10341 5.16823 3.51359 5.16823 3.51359L4.83209 3.36195C4.83209 3.36195 4.84714 3.33198 4.87843 3.28176L4.55092 3.11918C4.55092 3.11918 5.38297 2.69281 5.99033 2.38664ZM4.8878 5.17546C5.35534 5.21163 5.94089 5.42992 6.29617 5.93037C6.33058 5.97884 6.36498 6.03233 6.40012 6.08698C6.48015 6.21141 6.56402 6.34183 6.6606 6.43258C6.88313 6.64134 7.09098 6.73424 7.27998 6.72488C7.11655 6.92535 6.09456 6.8512 5.39403 5.93847C5.01774 5.44808 3.71219 5.39325 3.71219 5.39325C3.71219 5.39325 4.09065 5.11361 4.8878 5.17546ZM2.91902 6.70547C2.64372 7.20578 4.09224 7.6999 4.09224 7.6999V7.69994C4.6974 7.91945 4.74037 8.64768 4.75585 9.18108C4.80646 10.9182 4.06494 11.2965 4.02061 11.2819C4.01625 11.2804 4.02456 11.2293 4.03902 11.1402C4.11272 10.6861 4.34631 9.24717 3.87843 8.38484C2.71155 7.84223 2.49905 7.55919 2.37236 7.16831C2.16629 6.5314 2.97512 5.93228 2.97512 5.93228C2.97512 5.93228 3.19404 6.20498 2.91902 6.70547ZM5.50895 13.9269C5.50895 13.9269 6.14127 14.8672 8.00822 14.8672L8.0054 15.8858C7.08741 15.8858 5.91095 14.9368 5.80072 14.6318L5.50895 13.9269Z" fill="#BD733D"/>
<path id="Shape_5" fill-rule="evenodd" clip-rule="evenodd" d="M3.41251 6.17883C3.29777 7.02035 2.90816 7.15696 2.90816 7.15696C2.90106 7.14992 2.89314 7.14234 2.88464 7.13421C2.7832 7.03714 2.59943 6.8613 2.74759 6.58832C2.83854 6.42078 2.91471 6.32623 2.98867 6.23442C3.04529 6.16414 3.10061 6.09547 3.16029 5.99688C3.29777 5.76933 3.27488 4.60925 3.27488 4.60925C3.27488 4.60925 3.52711 5.33716 3.41251 6.17883ZM4.56903 11.7206C4.63015 11.5536 4.84409 10.8788 4.91281 10.2647C4.99519 9.52919 4.96516 8.45345 4.96516 8.45345C4.96516 8.45345 4.78166 9.1586 4.62119 9.27254C4.46081 9.38621 4.16271 10.1595 4.16271 10.1595C4.16271 10.1595 4.00303 11.3109 3.92704 11.6978C4.01458 11.7152 4.09634 11.7041 4.18033 11.6926C4.29816 11.6766 4.42037 11.6599 4.56903 11.7206ZM5.71354 13.2914C5.71354 13.2914 5.88532 14.333 6.57308 14.333C7.15751 14.333 7.32971 13.4532 7.32971 13.2713L5.71354 13.2914Z" fill="#BD733D"/>
<path id="Shape_6" d="M3.45703 1.8958L3.33751 1.64563C2.98516 1.68499 3.45703 1.8958 3.45703 1.8958Z" fill="#FDC168"/>
<path id="Shape_7" d="M6.3075 2.13742C6.3075 2.13742 5.94086 2.07681 5.75736 1.80388C5.57385 1.53089 5.05435 0.984881 4.22609 0.97883C3.39788 0.972687 2.57849 1.19726 2.57849 1.19726L3.29375 1.64572C3.36941 1.64325 3.50169 1.64428 3.72042 1.65154C4.6181 1.68114 5.33043 2.66855 5.33043 2.66855L7.91987 2.12988" fill="#F5DFA5"/>
<path id="Shape_8" d="M6.61328 7.0035C6.61328 7.0035 6.18529 7.42813 5.52801 7.29157C4.87078 7.15514 4.47333 6.86699 4.44279 6.36649C4.41226 5.86605 4.58047 5.66893 4.58047 5.66893C4.58047 5.66893 5.31397 5.89654 5.66569 6.19987C6.01722 6.5031 6.27699 6.98838 6.61323 7.0035H6.61328Z" fill="white"/>
<path id="Shape_9" d="M6.09526 6.85181C6.09526 6.85181 5.72408 7.02002 5.30922 6.883C4.76617 6.70324 4.73 6.14285 4.73 6.14285C4.73 6.14285 4.39681 7.11297 5.3309 7.29971C6.08006 7.44944 6.52316 7.01868 6.52316 7.01868L6.09526 6.85177V6.85181Z" fill="#C9C9C9"/>
<path id="Shape_10" fill-rule="evenodd" clip-rule="evenodd" d="M7.24465 0.4088C7.00645 0.437053 6.31911 1.09966 6.35902 1.9316V1.93164C6.362 1.99579 6.80408 1.97552 7.40337 1.94805C8.05213 1.91832 8.88512 1.88014 9.54469 1.93146C9.37287 1.43804 9.81207 0.686065 9.81207 0.686065C9.81207 0.686065 9.38619 0.592046 8.75415 1.16128C8.6723 0.958723 8.50057 0.521717 8.6988 0C7.77316 0.324415 7.53876 0.819648 7.46943 1.2688C7.26956 1.12686 7.25611 0.716578 7.24917 0.505083C7.24785 0.464624 7.24676 0.431439 7.24465 0.4088ZM3.5383 2.70027C3.50066 2.87247 3.46586 3.03164 3.66906 3.19891L4.15859 3.03996C3.97448 2.88819 3.95459 2.65397 3.93351 2.40579L3.93343 2.40481C3.91744 2.21705 3.90083 2.02319 3.80265 1.86918C3.59452 1.54313 3.24914 1.35253 2.98495 1.2479C3.23342 1.12223 3.81367 0.930469 4.44318 1.13201C5.2029 1.37506 5.72709 2.26221 5.75725 2.31325C5.758 2.31453 5.75845 2.31529 5.75858 2.31549L6.21373 2.10311C6.18873 2.06332 5.51672 1.07825 4.60895 0.787763C3.31124 0.372028 2.47271 1.16594 2.44626 1.19666L2.24207 1.43366L2.55053 1.49361C2.5506 1.49362 2.55072 1.49365 2.5509 1.49369C2.56973 1.49759 3.21701 1.63168 3.49296 2.06397C3.54273 2.14195 3.55488 2.28292 3.56779 2.43262L3.56802 2.43521C3.57589 2.52835 3.55675 2.61588 3.5383 2.70027Z" fill="#946A52"/>
<path id="Path" d="M2.86041 6.83706C2.86041 6.83706 3.24182 6.3677 3.35482 5.4545C3.3992 5.09476 3.32035 4.38528 3.19421 4.11234C3.21715 4.78337 3.04523 5.4545 3.04523 5.4545C3.04523 5.4545 2.92932 6.70054 2.86041 6.83706Z" fill="#212431"/>
<path id="Shape_11" fill-rule="evenodd" clip-rule="evenodd" d="M4.87184 2.72488L4.87185 2.7249H4.8718L4.87184 2.72488ZM4.87184 2.72488L5.2677 2.56832C5.26128 2.52518 5.18707 2.13434 4.56873 1.7032C3.95409 1.27448 3.28715 1.483 3.25891 1.49207L3.34363 1.75179C3.3437 1.75177 3.34388 1.75171 3.34416 1.75162C3.36476 1.74479 3.9391 1.55439 4.41065 1.92657C4.74777 2.19276 4.87042 2.71879 4.87183 2.72485L4.87184 2.72488ZM3.8944 5.90361C3.85842 6.2162 4.05853 6.50045 4.05853 6.50045C4.12171 5.78171 4.45837 5.69928 4.45837 5.69928C4.45837 5.69928 4.35236 5.43025 4.11313 5.53451C3.98446 5.59074 3.91232 5.74922 3.8944 5.90361Z" fill="#212431"/>
<path id="Shape_12" d="M6.25573 6.93373C6.26408 6.94918 6.26839 6.95789 6.26839 6.95789C6.26839 6.95789 5.64419 7.42268 5.00455 6.951C4.66212 6.69826 4.69449 6.07322 4.79937 5.80814C5.07219 5.86949 5.30354 5.98003 5.4969 6.10915C5.2525 5.89272 5.0386 5.73339 5.03917 5.72972L4.76138 5.65171L4.22147 5.468C4.21457 5.50886 4.01765 6.42477 4.58608 7.04883C4.83798 7.32559 6.01912 7.94528 6.57996 6.88565L6.25573 6.93368V6.93373Z" fill="#212431"/>
<path id="Shape_13" d="M6.19722 7.00183C6.54861 7.53253 7.43527 7.22924 7.42002 6.66819C7.42002 6.66819 6.82757 6.99261 6.30413 6.39526C5.99852 6.04655 5.01931 5.08498 3.69135 5.40451C4.6084 5.60465 5.82252 6.43594 6.19718 7.00183H6.19722Z" fill="#212431"/>
<path id="Shape_14" d="M3.56734 8.49963C3.65187 8.54808 3.95002 8.85448 3.9502 9.31266C3.9502 9.54245 3.92717 10.6968 3.81253 11.402C3.98492 11.5131 4.105 11.5367 4.27668 11.65C4.36262 10.8333 4.42426 9.6496 4.39555 9.17173C4.36271 8.62702 4.06874 8.26146 3.79616 8.10558C3.71078 8.05685 3.62161 8.00895 3.53178 7.96078C3.06491 7.71046 2.58208 7.45149 2.58208 7.00936C2.58208 6.66345 2.71765 6.55528 2.86109 6.44059L2.87657 6.42816C2.97179 6.35183 3.0795 6.26526 3.14334 6.12316C3.31751 5.7346 3.34598 4.74474 3.14334 4.4935C3.0423 4.36829 2.77164 3.94725 2.84946 3.66431C2.8791 3.55632 2.94764 3.47627 3.05923 3.41958C3.1773 3.35953 3.33683 3.32914 3.53319 3.32914C3.91887 3.32914 4.34667 3.44564 4.56737 3.51499C5.35604 3.76303 6.30771 4.47814 6.58048 4.6914C6.58832 4.69736 6.59291 4.70085 6.59376 4.70141L6.7683 4.82187L6.65915 4.64062C6.65239 4.62931 5.96101 3.50126 4.72475 3.08767C4.48425 3.00719 4.01175 2.87217 3.54736 2.87217C3.27093 2.87217 3.03629 2.92011 2.85058 3.01445C2.62416 3.12937 2.47086 3.31271 2.40716 3.5445C2.25105 4.11267 2.75949 4.74526 2.7768 4.7655C2.83609 4.87051 2.86123 5.63323 2.72426 5.93847C2.7055 5.98064 2.6538 6.02202 2.58846 6.07438C2.56796 6.09081 2.54507 6.10789 2.52082 6.12614C2.32761 6.27084 2.03546 6.48946 2.03546 6.9934C2.03546 7.68291 2.73974 8.05675 3.30573 8.35734C3.39861 8.40691 3.48722 8.45383 3.56734 8.49963Z" fill="#212431"/>
<path id="Shape_15" d="M3.65925 3.24997L3.63969 3.23386C3.41519 3.04899 3.45501 2.86691 3.49357 2.69069C3.51112 2.60938 3.5296 2.52532 3.52209 2.43907C3.50985 2.29408 3.49807 2.15729 3.45407 2.08827C3.18881 1.67262 2.54767 1.53951 2.54134 1.5382L2.15613 1.46322L2.4115 1.16696C2.41619 1.16138 2.9546 0.622114 3.86644 0.622114C4.11506 0.622114 4.36972 0.663166 4.62307 0.744386C5.57052 1.04748 6.24637 2.06886 6.25275 2.07896L6.2801 2.12234L5.74169 2.37358L5.72011 2.33961C5.66213 2.24158 5.15163 1.4062 4.42943 1.17506C4.25208 1.11828 4.06519 1.08956 3.87418 1.08956C3.52819 1.08956 3.24763 1.18311 3.09832 1.24595C3.34783 1.35742 3.65043 1.54504 3.84182 1.84465C3.94595 2.00784 3.96284 2.20728 3.97935 2.40002C3.99962 2.63963 4.01875 2.865 4.18819 3.00454L4.25212 3.05713L3.6593 3.24997H3.65925Z" fill="#212431"/>
<path id="Shape_16" d="M4.87185 2.7249C4.87161 2.72392 4.74942 2.19406 4.41065 1.92657C3.93275 1.54937 3.34926 1.75002 3.34363 1.75179L3.25891 1.49207C3.28715 1.483 3.95409 1.27448 4.56873 1.7032C5.18707 2.13434 5.26128 2.52518 5.2677 2.56832L4.8718 2.7249H4.87185Z" fill="#463014"/>
<path id="Shape_17" fill-rule="evenodd" clip-rule="evenodd" d="M4.82705 2.73472L4.83897 2.78685L5.31865 2.59732L5.31307 2.56167C5.3065 2.51657 5.2291 2.10786 4.59523 1.66592C4.33433 1.48412 4.02202 1.38791 3.69169 1.38791C3.44129 1.38791 3.26426 1.44269 3.24475 1.44888L3.20117 1.46285L3.31483 1.80928L3.3586 1.79485C3.37468 1.78931 3.52212 1.7423 3.72049 1.7423C3.97464 1.7423 4.19731 1.8164 4.38199 1.96227C4.70433 2.21659 4.8246 2.72438 4.82703 2.7346L4.82705 2.73472ZM6.17487 13.9521C6.27066 14.0344 6.4089 14.0831 6.54437 14.0831C6.68322 14.0831 6.8063 14.0336 6.89088 13.9438C7.12711 13.6932 7.26666 13.4237 7.30034 13.3408C7.31976 13.2935 7.34195 13.2037 7.27267 13.1331C7.21877 13.0783 7.12495 13.0502 6.99408 13.0502H6.79284C6.58298 13.0502 6.33746 13.0502 6.19162 13.0504L6.06924 13.0506C5.89723 13.0506 5.81246 13.0994 5.77165 13.1403C5.71241 13.1999 5.70326 13.2828 5.74407 13.3863C5.85346 13.6633 6.10151 13.8893 6.17487 13.9521ZM6.68634 7.03301L6.19728 7.00182C6.19728 7.00182 6.32229 7.22049 6.4033 7.50329C6.49477 7.82319 6.31966 8.29073 6.31966 8.29073C6.31966 8.29073 6.97178 7.55812 6.68634 7.03301ZM3.72263 13.2598C3.72263 13.5997 4.33506 15.2318 6.07578 15.3645L6.11058 14.9149C4.64208 14.8028 4.17952 13.4067 4.17722 13.2598H3.94995L4.17722 13.26L3.72263 13.2598Z" fill="#212431"/>
<path id="Shape_18" d="M5.58663 12.4404C5.55943 12.2844 5.55661 12.1365 5.58978 11.9911C5.4575 11.8924 5.22014 11.8558 5.04203 11.7985C4.89638 11.7071 4.15106 11.8923 3.6104 11.243C2.9329 10.4299 3.07546 9.94451 3.07546 9.94451C2.90176 10.136 2.7334 10.063 2.46865 10.9559C2.20348 11.849 2.5931 12.4716 3.31924 13.0966C3.66228 13.3919 4.14721 13.5135 4.56437 13.5601C4.42463 13.4209 4.80303 13.4069 5.06384 13.3101C5.04306 13.1012 5.07792 12.8983 5.23492 12.735C5.32958 12.6365 5.4514 12.5777 5.57782 12.5308C5.58485 12.5146 5.59081 12.4996 5.59752 12.484C5.59307 12.4697 5.58943 12.4551 5.58663 12.4404V12.4404Z" fill="white"/>
<path id="Shape_19" d="M5.06029 13.3047C5.04518 13.2608 5.03378 13.2161 5.02262 13.1711C5.01056 13.122 4.95052 12.9827 5.02449 13.1417C5.0055 13.101 4.99307 13.0591 4.98392 13.0168C3.80793 13.0153 2.78487 12.2142 2.98254 10.5298C2.82859 10.3271 2.613 10.9388 2.613 10.9388C2.613 10.9388 2.02425 12.635 3.54473 13.2924C4.05134 13.5116 4.49908 13.6688 4.60471 13.6053C4.82476 13.6497 5.02337 13.4975 5.09786 13.3974C5.08393 13.3666 5.07117 13.3358 5.06029 13.3047Z" fill="#C9C9C9"/>
<path id="Shape_20" d="M5.5654 12.1962C5.56723 12.054 5.5965 11.9163 5.66578 11.7791C5.67061 11.7697 5.6762 11.7606 5.6814 11.7514C5.22888 11.7475 4.70773 11.7046 4.26393 11.5283C3.77614 11.3347 3.16595 10.6724 3.06112 9.89414C3.06112 9.89414 2.14247 10.5975 2.41238 12.1031C2.66577 13.5168 3.85804 13.9777 5.21776 14.0556C5.21851 14.0465 5.06484 13.7316 5.11339 13.5388C4.34128 13.5944 3.47789 13.2985 3.06112 12.618C2.67952 11.9951 2.78656 10.9318 2.94338 10.7759C3.32591 11.9736 4.70238 12.2171 5.5654 12.1962V12.1962Z" fill="#212431"/>
<path id="Shape_21" d="M5.70781 11.3388C5.46314 12.0512 4.96338 12.6279 4.96338 12.6279C4.96338 12.6279 5.65086 12.5968 5.68881 12.4762C5.71691 12.3872 6.30959 11.0105 6.5371 9.3977C6.3231 9.74655 5.72878 11.2778 5.70781 11.3388V11.3388Z" fill="#212431"/>
<path id="Shape_22" fill-rule="evenodd" clip-rule="evenodd" d="M9.59523 8.13411C9.4667 7.82576 9.23169 7.24404 9.23169 7.24404V7.244L9.5942 7.19373C9.5942 7.19373 9.9916 7.31521 9.9916 7.62063C9.9916 8.34873 10.2677 8.63614 10.2677 8.63614C10.2677 8.63614 9.73501 8.46937 9.59523 8.13411ZM9.6029 9.6962C9.60287 9.69617 9.60286 9.69615 9.60286 9.69615V9.6961L9.6029 9.6962ZM9.6029 9.6962L10.3822 11.857C10.3822 11.857 11.0427 11.848 10.9542 11.7182C10.3845 10.8822 9.60907 9.70556 9.6029 9.6962Z" fill="#BD733D"/>
<path id="Shape_23" fill-rule="evenodd" clip-rule="evenodd" d="M11.4703 1.76944C12.0206 1.33718 12.8459 1.49655 12.8459 1.49655C12.4312 1.58599 12.3994 1.77394 12.3378 2.13789C12.3211 2.23664 12.3022 2.34836 12.2728 2.47459C12.1353 3.06603 11.687 3.27222 11.687 3.27222L10.7596 2.54287C10.7596 2.54287 10.9202 2.2016 11.4703 1.76944ZM10.8447 7.82311C9.9505 8.14161 9.46908 7.57293 9.46908 7.57293C9.23989 7.18614 9.67539 6.64032 9.90467 6.5038C10.134 6.36729 11.8304 5.73037 11.8304 6.04883C11.8304 6.36729 11.7388 7.50465 10.8447 7.82311Z" fill="#BD733D"/>
<path id="Shape_24" fill-rule="evenodd" clip-rule="evenodd" d="M10.0157 2.38662C10.6229 2.69278 11.4551 3.11918 11.4551 3.11918L11.1277 3.28176C11.1589 3.33198 11.1741 3.36195 11.1741 3.36195L10.8379 3.5136C10.8379 3.5136 10.0173 4.10341 9.51454 4.48265C9.682 3.97043 10.1741 3.16582 10.1741 3.16582C10.1741 3.16582 10.3138 2.79611 10.0157 2.38662ZM11.1182 5.17547C10.6505 5.21163 10.0651 5.42993 9.70985 5.93037C9.67551 5.97877 9.64116 6.03217 9.60607 6.08673L9.60607 6.08673C9.52599 6.21124 9.44203 6.34177 9.34542 6.43259C9.12308 6.64134 8.91509 6.73424 8.72614 6.72489C8.88957 6.92535 9.91118 6.85121 10.6118 5.93847C10.9881 5.44808 12.2937 5.39325 12.2937 5.39325C12.2937 5.39325 11.9154 5.11361 11.1182 5.17547ZM13.0871 6.70548C13.3622 7.20578 11.9138 7.6999 11.9138 7.6999C11.3087 7.9194 11.2656 8.64764 11.2503 9.18104C11.1996 10.9182 11.9411 11.2964 11.9854 11.2818C11.9898 11.2804 11.9815 11.2294 11.9671 11.1407C11.8934 10.6873 11.6594 9.24749 12.1275 8.3848C13.2944 7.84219 13.5069 7.55915 13.6336 7.16827C13.8398 6.5314 13.0308 5.93228 13.0308 5.93228C13.0308 5.93228 12.8121 6.20498 13.0871 6.70548ZM10.4969 13.9269C10.4969 13.9269 9.86454 14.8672 7.99792 14.8672L8.00079 15.8858C8.9185 15.8858 10.0951 14.9368 10.2053 14.6318L10.4969 13.9269Z" fill="#BD733D"/>
<path id="Shape_25" fill-rule="evenodd" clip-rule="evenodd" d="M12.5936 6.17883C12.7081 7.02035 13.098 7.15696 13.098 7.15696C13.1051 7.14987 13.1131 7.14223 13.1216 7.13403C13.2229 7.03691 13.4063 6.86104 13.2585 6.58832C13.1676 6.42083 13.0914 6.32631 13.0175 6.23453C12.9608 6.16424 12.9055 6.09554 12.8458 5.99688C12.7081 5.76933 12.7312 4.60925 12.7312 4.60925C12.7312 4.60925 12.479 5.33716 12.5936 6.17883ZM11.437 11.7206C11.3759 11.5536 11.162 10.8788 11.093 10.2647C11.0107 9.52919 11.0409 8.45345 11.0409 8.45345C11.0409 8.45345 11.2243 9.1586 11.3846 9.27254C11.5452 9.38621 11.8432 10.1595 11.8432 10.1595C11.8432 10.1595 12.0028 11.3109 12.0788 11.6978C11.9913 11.7152 11.9096 11.7041 11.8256 11.6926C11.7079 11.6766 11.5857 11.6599 11.437 11.7206ZM10.2925 13.2914C10.2925 13.2914 10.1206 14.333 9.43297 14.333C8.84869 14.333 8.67639 13.4532 8.67639 13.2713L10.2925 13.2914Z" fill="#BD733D"/>
<path id="Shape_26" d="M12.6326 1.8958L12.7522 1.64563C13.1043 1.68499 12.6326 1.8958 12.6326 1.8958Z" fill="#EE9D5C"/>
<path id="Shape_27" d="M9.69832 2.13742C9.69832 2.13742 10.0652 2.07682 10.2485 1.80388C10.4319 1.5309 10.9517 0.984882 11.78 0.978785C12.6082 0.972641 13.4276 1.19722 13.4276 1.19722L12.7123 1.64567C12.6366 1.64321 12.5043 1.64423 12.2854 1.65149C11.3879 1.68109 10.6675 2.66855 10.6675 2.66855L8.08618 2.12983" fill="#F5DFA5"/>
<path id="Shape_28" d="M9.3927 7.0035C9.3927 7.0035 9.82069 7.42813 10.4778 7.29157C11.1351 7.15514 11.5325 6.86699 11.5631 6.36649C11.5936 5.86605 11.4256 5.66893 11.4256 5.66893C11.4256 5.66893 10.6918 5.89654 10.3403 6.19987C9.98881 6.5032 9.72903 6.98838 9.3927 7.0035H9.3927Z" fill="white"/>
<path id="Shape_29" d="M9.9105 6.85181C9.9105 6.85181 10.2818 7.02002 10.6965 6.883C11.2397 6.70324 11.2759 6.14285 11.2759 6.14285C11.2759 6.14285 11.6089 7.11297 10.6748 7.29971C9.92579 7.44944 9.4826 7.01868 9.4826 7.01868L9.9105 6.85177V6.85181Z" fill="#C9C9C9"/>
<path id="Shape_30" fill-rule="evenodd" clip-rule="evenodd" d="M12.4678 2.7002C12.5054 2.87243 12.5401 3.03162 12.3369 3.19891L11.8474 3.03996C12.0317 2.88802 12.0516 2.65346 12.0727 2.40498L12.0728 2.40481L12.0728 2.4048C12.0887 2.21704 12.1052 2.02319 12.2034 1.86918C12.4115 1.54313 12.757 1.35253 13.0211 1.2479C12.7727 1.12223 12.1925 0.930469 11.563 1.13201C10.8059 1.37422 10.2827 2.25609 10.2491 2.31269C10.2481 2.31432 10.2476 2.31526 10.2474 2.31549L9.79242 2.10311C9.81742 2.06332 10.4894 1.07825 11.397 0.787763C12.6949 0.372028 13.5334 1.16594 13.5599 1.19666L13.7642 1.43366L13.4556 1.49361L13.4554 1.49365C13.4414 1.49653 12.79 1.62996 12.513 2.06397C12.4629 2.14234 12.4509 2.28435 12.4382 2.4349L12.4381 2.43521C12.4303 2.52832 12.4494 2.61583 12.4678 2.7002ZM12.6512 5.4545C12.7642 6.3677 13.1454 6.83706 13.1454 6.83706C13.0767 6.70054 12.9608 5.4545 12.9608 5.4545C12.9608 5.4545 12.7886 4.78337 12.8116 4.11234C12.6855 4.38528 12.6068 5.09476 12.6512 5.4545Z" fill="#212431"/>
<path id="Shape_31" fill-rule="evenodd" clip-rule="evenodd" d="M11.5954 1.92657C11.2566 2.19406 11.1344 2.72392 11.1342 2.7249L10.7382 2.56832C10.7448 2.52518 10.8189 2.13434 11.4372 1.7032C12.052 1.27448 12.7189 1.483 12.7472 1.49207L12.6622 1.75179C12.6622 1.75178 12.6621 1.75174 12.6619 1.75168C12.6454 1.74614 12.0686 1.55307 11.5954 1.92657ZM12.1115 5.90361C12.1477 6.2162 11.9475 6.50045 11.9475 6.50045C11.8844 5.78171 11.5477 5.69928 11.5477 5.69928C11.5477 5.69928 11.6537 5.43025 11.8929 5.53451C12.0217 5.59074 12.0938 5.74922 12.1115 5.90361Z" fill="#212431"/>
<path id="Shape_32" d="M9.75032 6.93373C9.74197 6.94918 9.73765 6.95789 9.73765 6.95789C9.73765 6.95789 10.3616 7.42268 11.0013 6.951C11.3439 6.69826 11.3115 6.07322 11.2064 5.80815C10.9338 5.86949 10.7025 5.98003 10.509 6.10915C10.7534 5.89272 10.9674 5.7334 10.9666 5.72972L11.2446 5.65171L11.7844 5.46809C11.7913 5.50896 11.9882 6.42486 11.4196 7.04897C11.1677 7.32568 9.98655 7.94537 9.4259 6.88574L9.75032 6.93368V6.93373Z" fill="#212431"/>
<path id="Shape_33" d="M9.80859 7.00183C9.4572 7.53253 8.57078 7.22924 8.58607 6.66819C8.58607 6.66819 9.17833 6.99261 9.70178 6.39526C10.0073 6.04655 10.9868 5.08498 12.3147 5.40451C11.3977 5.60465 10.1835 6.43594 9.80859 7.00183V7.00183Z" fill="#212431"/>
<path id="Shape_34" d="M12.4388 8.49963C12.3542 8.54808 12.0559 8.85448 12.0559 9.31266C12.0557 9.54245 12.0788 10.6968 12.1936 11.402C12.0212 11.5131 11.9011 11.5367 11.7294 11.65C11.6434 10.8333 11.5816 9.6496 11.6106 9.17173C11.6434 8.62702 11.9372 8.26146 12.2097 8.10558C12.2951 8.05685 12.3843 8.00895 12.4743 7.96078C12.9412 7.71046 13.424 7.45149 13.424 7.00936C13.424 6.66345 13.2884 6.55528 13.1449 6.44059L13.1296 6.42816C13.0344 6.35183 12.9265 6.26526 12.8628 6.12316C12.6886 5.7346 12.66 4.74474 12.8626 4.4935C12.9637 4.36829 13.2345 3.94725 13.1567 3.66431C13.1269 3.55632 13.0583 3.47627 12.9467 3.41958C12.8286 3.35953 12.6694 3.32914 12.4728 3.32914C12.0873 3.32914 11.6593 3.44564 11.4388 3.51499C10.6501 3.76303 9.6985 4.47814 9.42549 4.6914C9.4177 4.69736 9.4132 4.70085 9.41236 4.70141L9.23767 4.82187L9.34683 4.64062C9.35377 4.62931 10.045 3.50126 11.2812 3.08767C11.5218 3.00719 11.9942 2.87217 12.4586 2.87217C12.7351 2.87217 12.9694 2.92011 13.1554 3.01445C13.3819 3.12937 13.5351 3.31271 13.5989 3.5445C13.755 4.11267 13.2465 4.74526 13.2291 4.7655C13.1699 4.87051 13.1448 5.63323 13.2815 5.93847C13.3004 5.98064 13.352 6.02202 13.4176 6.07438C13.438 6.09081 13.4607 6.10789 13.4852 6.12614C13.6784 6.27084 13.9704 6.48946 13.9704 6.9934C13.9704 7.68291 13.2661 8.05675 12.7003 8.35734C12.6074 8.40691 12.5187 8.45383 12.4388 8.49963H12.4388Z" fill="#212431"/>
<path id="Shape_35" d="M11.5987 3.11778C11.4867 2.92951 11.2002 2.566 10.5399 2.24656C9.80305 1.89022 8.95026 1.70935 8.00483 1.70893V1.70869H8.00117V1.70879C7.0556 1.70925 6.20262 1.89017 5.46597 2.24647C4.8057 2.56595 4.51937 2.92942 4.40726 3.11769L4.35913 3.18085L4.92456 3.30573L4.94248 3.28325L4.95196 3.26267C4.96068 3.22558 5.03648 3.02539 5.66683 2.72038C6.34076 2.39425 7.1268 2.22887 8.00286 2.2286C8.8791 2.22887 9.66481 2.39425 10.3386 2.72038C10.9691 3.02539 11.0451 3.22558 11.0538 3.26263L11.0632 3.28325L11.0809 3.30573L11.6465 3.18085L11.5986 3.11778H11.5987Z" fill="#212431"/>
<path id="Shape_36" d="M12.3369 3.19891C12.6397 2.94966 12.4142 2.71838 12.4381 2.43521C12.4509 2.28454 12.4629 2.14239 12.513 2.06397C12.7916 1.62747 13.4489 1.49501 13.4556 1.49361L13.7642 1.43366L13.5599 1.19666C13.5334 1.16594 12.6949 0.372028 11.397 0.787763C10.4894 1.07825 9.81742 2.06332 9.79242 2.10311L10.2474 2.31549C10.2529 2.30712 10.7842 1.38116 11.563 1.13201C12.1925 0.930469 12.7727 1.12223 13.0211 1.2479C12.757 1.35253 12.4115 1.54313 12.2034 1.86918C12.1052 2.02319 12.0887 2.21705 12.0728 2.40481C12.0517 2.65336 12.0318 2.88799 11.8474 3.03996L12.3369 3.19891V3.19891Z" fill="#463014"/>
<path id="Shape_37" d="M11.7542 3.05737L11.8179 3.00472C11.9874 2.86518 12.0064 2.63982 12.0269 2.4002C12.0433 2.20742 12.0603 2.00793 12.1644 1.84484C12.3557 1.54532 12.6585 1.35766 12.9079 1.24604C12.7586 1.1833 12.478 1.08975 12.1319 1.08975C11.9408 1.08975 11.7543 1.11842 11.5768 1.17525C10.8545 1.40639 10.344 2.24177 10.2862 2.33979L10.2645 2.37377L9.72614 2.12252L9.75353 2.07914C9.75986 2.06904 10.4356 1.04772 11.383 0.744571C11.6364 0.663351 11.891 0.622345 12.1398 0.622345C13.0517 0.622345 13.5901 1.16175 13.5947 1.1672L13.8502 1.46345L13.4648 1.53839C13.4584 1.53969 12.8173 1.67276 12.5519 2.0885C12.5079 2.15757 12.4963 2.29422 12.4839 2.4393C12.4766 2.5256 12.4948 2.60966 12.5126 2.69092C12.5511 2.86714 12.591 3.04941 12.3663 3.2341L12.3468 3.2502L11.7542 3.05737V3.05737Z" fill="#212431"/>
<path id="Shape_38" d="M11.1342 2.7249C11.1344 2.72392 11.2566 2.19406 11.5954 1.92657C12.0733 1.54937 12.6568 1.75002 12.6622 1.75179L12.7472 1.49207C12.7189 1.483 12.052 1.27448 11.4372 1.7032C10.8189 2.13434 10.7448 2.52518 10.7382 2.56832L11.1342 2.7249V2.7249Z" fill="#463014"/>
<path id="Shape_39" fill-rule="evenodd" clip-rule="evenodd" d="M10.6877 2.59732L10.693 2.56167C10.6997 2.51657 10.7772 2.10795 11.4109 1.66592C11.6716 1.48412 11.984 1.38796 12.3143 1.38796C12.5649 1.38796 12.7419 1.4426 12.7615 1.44888L12.805 1.46285L12.6914 1.80928L12.6476 1.79485C12.6311 1.78936 12.4838 1.7423 12.2855 1.7423C12.0314 1.7423 11.8089 1.81631 11.6242 1.96227C11.3002 2.21799 11.1803 2.72969 11.1792 2.73472L11.1672 2.78676L10.6877 2.59732ZM9.11537 13.9438C8.87919 13.6932 8.73945 13.4236 8.70567 13.3408C8.68635 13.2936 8.66439 13.2037 8.73363 13.133C8.78762 13.0783 8.8812 13.0502 9.01203 13.0502H9.21341C9.42327 13.0502 9.66865 13.0502 9.81458 13.0504L9.93701 13.0506C10.1089 13.0506 10.1936 13.0994 10.2344 13.1403C10.2937 13.1998 10.3029 13.2826 10.262 13.3863C10.1527 13.6633 9.9046 13.8894 9.83128 13.9521C9.73521 14.0344 9.5973 14.0831 9.46183 14.0831C9.32298 14.0831 9.19994 14.0336 9.11537 13.9438ZM9.80854 7.00183L9.31976 7.03301C9.03418 7.55813 9.68635 8.29074 9.68635 8.29074C9.68635 8.29074 9.51124 7.8232 9.60271 7.5033C9.68372 7.22049 9.80854 7.00183 9.80854 7.00183Z" fill="#212431"/>
<path id="Shape_40" d="M8.00311 5.30049C7.6914 5.30049 7.28499 5.29202 6.98004 5.07456C6.98004 5.07456 7.37932 5.76905 8.00259 5.76905L8.00311 5.68117L8.00362 5.76905C8.62694 5.76905 9.02613 5.07461 9.02613 5.07461C8.72122 5.29197 8.31453 5.30049 8.00311 5.30049Z" fill="#BD733D"/>
<path id="Shape_41" fill-rule="evenodd" clip-rule="evenodd" d="M8.00307 5.55573C8.26941 5.54996 8.54866 5.48489 8.8613 5.29713C8.8613 5.29713 8.40577 5.84845 8.00527 5.85269V5.85301L8.00302 5.85283L8.00077 5.85301V5.85269C7.60017 5.84845 7.14484 5.29713 7.14484 5.29713C7.45753 5.48489 7.73663 5.54996 8.00307 5.55573ZM9.89547 14.9148L9.93032 15.3645C11.6708 15.2318 12.2834 13.5996 12.2832 13.2597H11.8286C11.8262 13.4067 11.3636 14.8028 9.89547 14.9148Z" fill="#212431"/>
<path id="Shape_42" d="M10.4194 12.4404C10.4467 12.2844 10.4494 12.1365 10.4162 11.9911C10.5487 11.8924 10.7859 11.8558 10.964 11.7985C11.1096 11.7071 11.8551 11.8923 12.3958 11.243C13.0733 10.4299 12.9306 9.94451 12.9306 9.94451C13.1044 10.136 13.2726 10.063 13.5375 10.9559C13.8027 11.849 13.4129 12.4716 12.6868 13.0966C12.3438 13.3919 11.8588 13.5135 11.4416 13.5601C11.5814 13.4209 11.203 13.4069 10.9423 13.3101C10.9631 13.1012 10.9281 12.8983 10.7711 12.735C10.6767 12.6365 10.5547 12.5777 10.4284 12.5308C10.4212 12.5146 10.4152 12.4996 10.4086 12.484C10.4128 12.4698 10.4167 12.4555 10.4194 12.4404H10.4194Z" fill="white"/>
<path id="Shape_43" d="M10.9455 13.3047C10.9608 13.2608 10.9719 13.2161 10.9832 13.1711C10.9954 13.122 11.0554 12.9827 10.9813 13.1417C11.0004 13.101 11.0128 13.0591 11.0219 13.0168C12.1979 13.0153 13.221 12.2142 13.0231 10.5298C13.1771 10.3271 13.3928 10.9388 13.3928 10.9388C13.3928 10.9388 13.9816 12.635 12.4611 13.2924C11.9545 13.5116 11.5068 13.6688 11.4012 13.6053C11.1809 13.6497 10.9823 13.4975 10.908 13.3974C10.9218 13.3666 10.9349 13.3358 10.9455 13.3047V13.3047Z" fill="#C9C9C9"/>
<path id="Shape_44" d="M10.4404 12.1962C10.4388 12.054 10.4093 11.9163 10.3403 11.7791C10.3353 11.7697 10.3297 11.7606 10.3246 11.7514C10.7771 11.7475 11.2983 11.7046 11.7421 11.5283C12.2298 11.3347 12.84 10.6724 12.9449 9.89414C12.9449 9.89414 13.8635 10.5975 13.5936 12.1031C13.34 13.5168 12.1479 13.9777 10.7882 14.0556C10.7875 14.0465 10.9412 13.7316 10.8926 13.5388C11.6645 13.5944 12.5279 13.2985 12.9449 12.618C13.3263 11.9951 13.2193 10.9318 13.0625 10.7759C12.6801 11.9736 11.3035 12.2171 10.4404 12.1962V12.1962Z" fill="#3F445A"/>
<path id="Shape_45" fill-rule="evenodd" clip-rule="evenodd" d="M9.83968 12.1689C10.5283 12.1689 10.827 12.3765 10.9894 12.5508C11.226 12.8044 11.2633 13.1572 11.0995 13.5982C10.6641 14.7719 10.0525 15.9642 8.00524 15.966V15.9662L8.00299 15.966L8.00074 15.9662V15.966C5.95329 15.9643 5.34166 14.7719 4.90645 13.5982C4.74264 13.1572 4.77979 12.8044 5.01654 12.5508C5.17908 12.3766 5.47774 12.1689 6.16626 12.1689L8.00083 12.1678H8.00534L9.83968 12.1689ZM8.003 15.5343C9.90611 15.5318 10.4634 14.1053 10.6708 13.5159H10.6707C10.7855 13.1888 10.7767 12.947 10.644 12.7966C10.5532 12.6937 10.3447 12.5712 9.86952 12.5712L9.37337 12.571C9.0073 12.5706 8.54732 12.5703 8.00305 12.57C7.45858 12.5703 6.99884 12.5706 6.63267 12.571L6.13634 12.5712C5.66125 12.5712 5.45279 12.6938 5.36203 12.7966C5.22918 12.9469 5.22046 13.1888 5.3352 13.5159C5.54258 14.1053 6.09966 15.5318 8.003 15.5343Z" fill="#212431"/>
<path id="Shape_46" d="M10.2981 11.3388C10.5428 12.0512 11.0425 12.6279 11.0425 12.6279C11.0425 12.6279 10.355 12.5968 10.317 12.4762C10.2891 12.3872 9.69644 11.0105 9.46893 9.3977C9.68274 9.74655 10.2771 11.2778 10.2981 11.3388V11.3388Z" fill="#212431"/>
</g>
</g>
</svg>
