<svg width="16" height="16" viewBox="0 0 16 16" fill="none" xmlns="http://www.w3.org/2000/svg">
<g id="gulp">
<g id="gulp_2">
<path id="Shape" d="M6.01555 10.6947C5.84235 8.89554 5.70164 7.4006 5.70286 7.3726C5.70409 7.34464 5.55633 7.32176 5.37455 7.32176H5.04404V6.03362H7.622V3.53309L8.83841 2.78336C9.57922 2.32674 10.124 2.03362 10.2316 2.03362C10.4916 2.03362 10.7949 2.37059 10.7949 2.65952C10.7949 2.78577 10.7577 2.94094 10.7122 3.00434C10.6668 3.06775 10.2429 3.3574 9.77025 3.648L8.91095 4.17638L8.89256 5.10498L8.87418 6.03358H11.4558V7.32172H10.8191L10.4974 10.6438L10.2632 13.0622C10.2135 13.5748 9.78278 13.9658 9.26783 13.9658H7.23877C6.7236 13.9658 6.29273 13.5745 6.24337 13.0617L6.01555 10.6947Z" fill="#D46C6C"/>
</g>
</g>
</svg>
