<svg width="16" height="16" viewBox="0 0 16 16" fill="none" xmlns="http://www.w3.org/2000/svg">
<g id="image">
<g id="Group">
<path id="Vector 2" d="M10.375 8L5.5 13L12.625 12.6429L13 9.42857L10.375 8Z" fill="#B2E4AE"/>
<path id="Vector" d="M11.8889 3H4.11111C3.49746 3 3 3.49746 3 4.11111V11.8889C3 12.5025 3.49746 13 4.11111 13H11.8889C12.5025 13 13 12.5025 13 11.8889V4.11111C13 3.49746 12.5025 3 11.8889 3Z" stroke="#B2E4AE" stroke-linecap="round" stroke-linejoin="round"/>
<path id="Vector_2" d="M5.91667 7.16667C6.60702 7.16667 7.16667 6.60703 7.16667 5.91667C7.16667 5.22632 6.60702 4.66667 5.91667 4.66667C5.22631 4.66667 4.66667 5.22632 4.66667 5.91667C4.66667 6.60703 5.22631 7.16667 5.91667 7.16667Z" fill="#F5DFA5"/>
</g>
</g>
</svg>
