<svg width="16" height="16" viewBox="0 0 16 16" fill="none" xmlns="http://www.w3.org/2000/svg">
<g id="js">
<path id="Vector" d="M11.6616 11.0366C12.3193 11.9158 10.5625 12.5547 9.85429 11.2841L8.89217 11.8424L8.95114 11.9401C9.31358 12.5504 9.87972 12.9079 10.645 13.0106C12.3203 13.2109 13.4141 12.1426 12.8204 10.6254C12.3984 9.75781 11.293 9.59375 10.6484 9.16602C10.2694 8.94519 10.3483 8.47779 10.6527 8.29028C10.8895 8.14444 11.4336 8.12598 11.7138 8.70713L12.6345 8.11377C11.9082 6.80469 10.1914 7.06836 9.67681 7.66314C8.97706 8.48521 9.17722 9.40274 9.79297 9.99219C10.2719 10.4506 11.0235 10.6063 11.6616 11.0366ZM7.31183 12.8898C7.84222 12.6753 8.15333 12.2318 8.23564 11.5726C8.24279 11.5058 8.24756 7.24605 8.24756 7.24605H7.08064L7.07222 11.4596C7.04492 11.7324 6.88183 11.928 6.64356 11.9663C6.23699 12.0317 5.96595 11.9133 5.68348 11.3844L4.73345 11.9588C5.14062 12.916 6.3681 13.2675 7.31183 12.8898ZM3.05172 2H12.9483C13.5309 2 14 2.46906 14 3.05172V12.9483C14 13.5309 13.5309 14 12.9483 14H3.05172C2.46906 14 2 13.5309 2 12.9483V3.05172C2 2.46906 2.46906 2 3.05172 2Z" fill="#F5DFA5"/>
</g>
</svg>
