<svg width="16" height="16" viewBox="0 0 16 16" fill="none" xmlns="http://www.w3.org/2000/svg">
<g id="license">
<g id="Group">
<path id="&#194;&#169;" fill-rule="evenodd" clip-rule="evenodd" d="M7.99494 16C3.54091 16 0 12.4591 0 8.00508C0 3.5409 3.53076 0 7.99494 0C12.4693 0 16 3.5409 16 8.00508C16 12.4591 12.4591 16 7.99494 16ZM7.99494 14.3158C11.546 14.3158 14.3361 11.5257 14.3361 8.00508C14.3361 4.46417 11.546 1.68421 7.99494 1.68421C4.45403 1.68421 1.66392 4.47432 1.66392 8.00508C1.66392 11.5257 4.45403 14.3158 7.99494 14.3158Z" fill="#81C5DA"/>
<path id="Path" fill-rule="evenodd" clip-rule="evenodd" d="M12 6.9256H9.94817C9.78446 6.13872 9.09687 5.65448 8.18009 5.65448C6.9468 5.65448 6.19373 6.53216 6.19373 7.98487C6.19373 9.46785 6.9468 10.3455 8.18009 10.3455C9.14053 10.3455 9.78446 9.90165 9.94817 9.13494H12C11.7926 10.9105 10.3302 12 8.16917 12C5.59345 12 4 10.4565 4 7.98487C4 5.54351 5.60437 4 8.15826 4C10.2756 4 11.7926 5.15006 12 6.9256Z" fill="#F5DFA5"/>
</g>
</g>
</svg>
