<svg width="16" height="16" viewBox="0 0 16 16" fill="none" xmlns="http://www.w3.org/2000/svg">
<g id="license">
<mask id="mask0" mask-type="alpha" maskUnits="userSpaceOnUse" x="0" y="0" width="16" height="16">
<circle id="Ellipse" cx="8" cy="8" r="8" fill="#212431"/>
</mask>
<g mask="url(#mask0)">
<circle id="Ellipse_2" cx="8" cy="8" r="8" fill="#3F4459"/>
<g id="Group">
<path id="&#194;&#169;" fill-rule="evenodd" clip-rule="evenodd" d="M7.99661 13.3333C5.02726 13.3333 2.66666 10.9727 2.66666 8.00339C2.66666 5.02727 5.02049 2.66667 7.99661 2.66667C10.9795 2.66667 13.3333 5.02727 13.3333 8.00339C13.3333 10.9727 10.9727 13.3333 7.99661 13.3333ZM7.99661 12.2105C10.364 12.2105 12.224 10.3505 12.224 8.00338C12.224 5.64278 10.364 3.78947 7.99661 3.78947C5.63601 3.78947 3.77594 5.64955 3.77594 8.00338C3.77594 10.3505 5.63601 12.2105 7.99661 12.2105Z" fill="#81C5DA"/>
</g>
<path id="Path" fill-rule="evenodd" clip-rule="evenodd" d="M10.6667 7.28373H9.29878C9.18964 6.75914 8.73125 6.43631 8.12006 6.43631C7.29787 6.43631 6.79583 7.02143 6.79583 7.98991C6.79583 8.97856 7.29787 9.56368 8.12006 9.56368C8.76036 9.56368 9.18964 9.26775 9.29878 8.75662H10.6667C10.5284 9.94031 9.55344 10.6667 8.11279 10.6667C6.39564 10.6667 5.33334 9.63766 5.33334 7.98991C5.33334 6.36233 6.40292 5.33333 8.10551 5.33333C9.51706 5.33333 10.5284 6.10004 10.6667 7.28373Z" fill="#F5DFA5"/>
</g>
</g>
</svg>
