<svg width="16" height="16" viewBox="0 0 16 16" fill="none" xmlns="http://www.w3.org/2000/svg">
<g id="license">
<g id="Group">
<path id="&#194;&#169;" fill-rule="evenodd" clip-rule="evenodd" d="M7.99557 15C4.09829 15 1 11.9017 1 8.00445C1 4.09829 4.08941 1 7.99557 1C11.9106 1 15 4.09829 15 8.00445C15 11.9017 11.9017 15 7.99557 15ZM7.99557 13.5263C11.1027 13.5263 13.5441 11.085 13.5441 8.00444C13.5441 4.90615 11.1027 2.47368 7.99557 2.47368C4.89728 2.47368 2.45593 4.91503 2.45593 8.00444C2.45593 11.085 4.89728 13.5263 7.99557 13.5263Z" fill="#81C5DA"/>
<path id="Path" fill-rule="evenodd" clip-rule="evenodd" d="M11.5 7.0599H9.70465C9.5614 6.37138 8.95976 5.94767 8.15758 5.94767C7.07845 5.94767 6.41951 6.71564 6.41951 7.98676C6.41951 9.28437 7.07845 10.0523 8.15758 10.0523C8.99796 10.0523 9.5614 9.66394 9.70465 8.99307H11.5C11.3186 10.5467 10.0389 11.5 8.14803 11.5C5.89427 11.5 4.5 10.1494 4.5 7.98676C4.5 5.85057 5.90382 4.5 8.13848 4.5C9.99114 4.5 11.3186 5.50631 11.5 7.0599Z" fill="#F5DFA5"/>
</g>
</g>
</svg>
