<svg width="16" height="16" viewBox="0 0 16 16" fill="none" xmlns="http://www.w3.org/2000/svg">
<g id="ocaml">
<path id="Vector" d="M2 7.24062V4.28281C2 3.44843 2.67734 2.77109 3.51172 2.77109H12.4883C13.3227 2.77109 14 3.44843 14 4.28281V13.2266H9.01953C9.01953 13.2266 8.68906 12.3594 8.62578 11.9328C8.60938 11.8227 8.64219 11.7125 8.60703 11.6094C8.57891 11.5203 8.51328 11.5109 8.47109 11.4383C8.35859 11.2461 8.24141 10.9977 8.23203 10.7633C8.22266 10.5523 8.14531 10.3601 8.13359 10.1516C8.12891 10.0508 8.14062 9.94531 8.13594 9.84687C8.13359 9.79765 8.12891 9.68515 8.10547 9.61484L8.13125 9.54921C8.11953 9.52578 8.35625 9.53515 8.42656 9.53515C8.54609 9.53749 8.65859 9.54218 8.77813 9.54921C9.02188 9.56093 9.24219 9.55859 9.47891 9.52109C10.0063 9.43906 10.25 9.22343 10.3742 9.13437C10.8594 8.78515 11.0797 8.21328 11.0797 8.21328C11.1594 8.03515 11.1594 7.7164 11.3305 7.57343C11.532 7.40468 11.8719 7.4164 12.1039 7.31327C12.2398 7.25234 12.3383 7.21953 12.4766 7.24999C12.5797 7.27109 12.7648 7.39062 12.807 7.22421C12.7719 7.20312 12.7602 7.16093 12.7414 7.13984C12.9336 7.12109 12.7461 6.67812 12.6688 6.58906C12.5516 6.45312 12.357 6.38984 12.1508 6.33593C11.9047 6.27031 11.682 6.19531 11.45 6.23984C11.0445 6.31953 11.075 6.08749 10.8359 6.08749C10.55 6.08749 10.0414 6.10156 9.95234 6.38046C9.9125 6.50937 9.86797 6.5164 9.79766 6.61484C9.73672 6.69921 9.80937 6.77656 9.77656 6.87265C9.74609 6.97343 9.69922 7.32499 9.65 7.44921C9.56797 7.65781 9.47188 7.91796 9.29141 7.91796C9.04063 7.94843 8.84141 7.95781 8.6375 7.88281C8.51563 7.83828 8.30937 7.76796 8.20625 7.72578C7.73516 7.5289 7.65781 7.31093 7.65781 7.31093C7.60625 7.22656 7.10937 6.19062 7.03672 6.01249C6.94297 5.78046 6.81172 5.60937 6.71797 5.52265C6.57266 5.3914 6.43672 5.18984 6.13906 5.24843C6.08516 5.25781 5.89297 5.26718 5.74531 5.3914C5.64453 5.47578 5.61406 5.64921 5.52031 5.79687C5.46641 5.88124 5.37266 6.12499 5.28594 6.32656C5.225 6.46718 5.19687 6.57265 5.13359 6.62421C5.08203 6.66406 4.95781 6.76484 4.79609 6.60078C4.73516 6.53749 4.58516 6.27499 4.475 6.08515C4.15391 5.52734 4.02734 5.27656 3.65938 5.27421C3.19063 5.27187 3.15547 5.53671 2.94922 5.91874C2.94922 5.9164 2.74297 6.69453 2 7.24062ZM2 10.6648V13.2266H4.325C4.325 13.2266 4.5125 12.5023 4.55469 12.3547C4.58984 12.2422 4.63437 12.1508 4.65312 12.0359C4.66953 11.9258 4.65078 11.8203 4.64141 11.7219C4.61797 11.4711 4.82422 11.382 4.92266 11.1664C5.01172 10.9719 5.06328 10.7516 5.13594 10.5523C5.20625 10.3625 5.31641 10.093 5.50625 9.99687C5.48281 9.97109 5.1125 9.95937 5.01406 9.94765C4.70938 9.91484 4.27578 9.82343 4.07891 9.77656C3.95937 9.74843 3.56094 9.60546 3.47422 9.56562C3.27031 9.47187 3.13672 9.21874 2.97734 9.24453C2.87656 9.26093 2.77813 9.29609 2.71484 9.39687C2.66328 9.48124 2.64688 9.62421 2.60938 9.72031C2.56719 9.83281 2.49688 9.93593 2.43359 10.0414C2.32344 10.2359 2.07266 10.4469 2 10.6648ZM8.46641 12.8352C8.42187 12.7414 8.36563 12.5586 8.32812 12.4766C8.29297 12.4016 8.18516 12.2047 8.13125 12.1414C8.01406 12.0031 7.98594 11.9937 7.95078 11.8203C7.88984 11.518 7.73281 10.9695 7.54531 10.5922C7.44922 10.3977 7.2875 10.2336 7.13984 10.093C7.01094 9.96874 6.72266 9.76015 6.67109 9.76953C6.19766 9.86328 6.05234 10.3273 5.82969 10.6953C5.70547 10.8992 5.57656 11.0703 5.47812 11.2883C5.38906 11.4875 5.39609 11.7078 5.24375 11.8789C5.08672 12.0547 4.98359 12.2398 4.90625 12.4672C4.89219 12.5094 4.75859 13.2266 4.75859 13.2266H8.61875L8.61172 13.2102C8.56016 13.0625 8.49219 12.8914 8.46641 12.8352Z" fill="#F5DFA5"/>
</g>
</svg>
