<svg width="16" height="16" viewBox="0 0 16 16" fill="none" xmlns="http://www.w3.org/2000/svg">
<g id="package-lock">
<g id="Group">
<path id="Subtract" fill-rule="evenodd" clip-rule="evenodd" d="M3.745 3.70977V10.554H7.24021V5.41955H8.98518V8.35688H8.6363C8.15605 8.35688 7.76311 8.75606 7.76311 9.24394V12.2688H2V2H12.4804V6.01024C12.2124 5.89087 11.9164 5.82461 11.6052 5.82461C11.2941 5.82461 10.9981 5.89084 10.7302 6.01016V3.70977H3.745Z" fill="#D46C6C"/>
<g id="ic_lock_24px">
<path id="Shape" fill-rule="evenodd" clip-rule="evenodd" d="M13.5699 9.46294H13.2424V8.79765C13.2424 7.87954 12.5089 7.13441 11.6052 7.13441C10.7014 7.13441 9.96793 7.87954 9.96793 8.79765V9.46294H9.64048C9.28028 9.46294 8.98558 9.76233 8.98558 10.1282V13.4547C8.98558 13.8206 9.28028 14.12 9.64048 14.12H13.5699C13.9301 14.12 14.2248 13.8206 14.2248 13.4547V10.1282C14.2248 9.76233 13.9301 9.46294 13.5699 9.46294ZM11.6052 12.4568C11.245 12.4568 10.9503 12.1574 10.9503 11.7915C10.9503 11.4256 11.245 11.1262 11.6052 11.1262C11.9654 11.1262 12.2601 11.4256 12.2601 11.7915C12.2601 12.1574 11.9654 12.4568 11.6052 12.4568ZM10.5901 8.79765V9.46294H12.6203V8.79765C12.6203 8.22882 12.1651 7.76644 11.6052 7.76644C11.0452 7.76644 10.5901 8.22882 10.5901 8.79765Z" fill="#F5DFA5"/>
</g>
</g>
</g>
</svg>
