<svg width="16" height="16" viewBox="0 0 16 16" fill="none" xmlns="http://www.w3.org/2000/svg">
<g id="psd">
<path id="Shape" d="M2.5 8C2.5 4.96243 4.96243 2.5 8 2.5C11.0376 2.5 13.5 4.96243 13.5 8C13.5 11.0376 11.0376 13.5 8 13.5C4.96243 13.5 2.5 11.0376 2.5 8Z" fill="#212431" stroke="#555B77"/>
<g id="Group">
<path id="Combined Shape" fill-rule="evenodd" clip-rule="evenodd" d="M7.19036 5.77612C7.39295 5.84219 7.56334 5.93309 7.70151 6.04882H7.70229C7.83216 6.16456 7.93553 6.31333 8.01242 6.49513C8.0893 6.67693 8.12774 6.87512 8.12774 7.08968C8.12774 7.31218 8.09527 7.51036 8.03034 7.68423C7.9654 7.85811 7.87606 8.00688 7.76229 8.13054C7.60022 8.29543 7.4197 8.42333 7.22075 8.51423C7.02179 8.60513 6.76803 8.65877 6.45947 8.67515L6.23428 8.68149L6.13065 8.68784V10.0997H5.22989V5.7024L5.63741 5.68972C5.90961 5.68126 6.18363 5.67703 6.45947 5.67703C6.74414 5.67703 6.98777 5.71006 7.19036 5.77612ZM6.26468 7.90697H6.43533V7.90618C6.67896 7.89772 6.87168 7.82558 7.0135 7.68976C7.15531 7.55394 7.22622 7.37029 7.22622 7.13881C7.22674 6.93217 7.16596 6.75671 7.04389 6.61244C6.92181 6.46816 6.74311 6.39179 6.5078 6.38334L6.25222 6.377L6.13066 6.38334V7.89429L6.26468 7.90697Z" fill="#7ACCEE"/>
<path id="Path" fill-rule="evenodd" clip-rule="evenodd" d="M9.90509 8.04253C9.70198 7.96801 9.56406 7.90618 9.49134 7.85703C9.41861 7.80788 9.38199 7.74182 9.38147 7.65885C9.38095 7.57587 9.41342 7.51193 9.47887 7.467C9.54432 7.42208 9.63757 7.39936 9.7586 7.39883C9.89678 7.39883 10.0531 7.43186 10.2277 7.49792C10.4022 7.56398 10.5261 7.61762 10.5994 7.65885V6.91526C10.5017 6.86558 10.3799 6.81591 10.2339 6.76623C10.0879 6.71655 9.92146 6.69171 9.73445 6.69171C9.33654 6.69171 9.01992 6.79292 8.7846 6.99533C8.54928 7.19774 8.43163 7.45591 8.43163 7.76983C8.43163 7.95956 8.50071 8.12471 8.63889 8.26529C8.77707 8.40587 9.00849 8.53376 9.33316 8.64897C9.51965 8.71503 9.64536 8.78928 9.71029 8.87173C9.77523 8.95417 9.80769 9.03688 9.80769 9.11985C9.80769 9.21075 9.77523 9.28104 9.71029 9.33072C9.64536 9.3804 9.53575 9.40524 9.38147 9.40524C9.2355 9.40524 9.07109 9.37221 8.88824 9.30615C8.70538 9.24009 8.56954 9.17825 8.48072 9.12065V9.85155C8.60227 9.91761 8.74434 9.97759 8.90694 10.0315C9.06953 10.0854 9.22771 10.1163 9.38147 10.1242C9.84432 10.1327 10.1913 10.0315 10.4225 9.82063C10.6536 9.60976 10.7692 9.3516 10.7692 9.04613C10.7609 8.80672 10.69 8.60643 10.5565 8.44524C10.423 8.28405 10.2059 8.14981 9.90509 8.04253Z" fill="#7ACCEE"/>
</g>
</g>
</svg>
