<svg width="16" height="16" viewBox="0 0 16 16" fill="none" xmlns="http://www.w3.org/2000/svg">
<g id="pug">
<g id="__pug-logo-mono-isolated">
<path id="Combined Shape" fill-rule="evenodd" clip-rule="evenodd" d="M13.9985 6.89657C13.9985 9.36883 11.4291 11.373 8.25946 11.373C5.08986 11.373 2.52039 9.36883 2.52039 6.89657C2.52039 4.4243 5.08986 2.42014 8.25946 2.42014C11.4291 2.42014 13.9985 4.4243 13.9985 6.89657ZM8.24948 6.30242C9.37271 6.30242 10.3393 6.92725 10.8492 7.56222C11.2563 8.06347 11.2352 8.34678 11.2062 8.73659C11.1977 8.85108 11.1885 8.97477 11.1892 9.11586C11.1892 10.8194 10.7419 10.8531 10.2989 10.8865C10.157 10.8972 10.0155 10.9079 9.88933 10.9735C9.47517 11.1781 9.057 11.1606 8.62543 11.1426L8.62539 11.1426C8.50127 11.1374 8.37604 11.1322 8.24948 11.1322H8.23948C8.11529 11.1322 7.99239 11.1371 7.87056 11.1419H7.87053H7.87049H7.87046H7.87043H7.8704H7.87036C7.43637 11.1591 7.01597 11.1758 6.59962 10.9701C6.47267 10.9045 6.33082 10.8939 6.18876 10.8832C5.74524 10.8497 5.29974 10.8162 5.29974 9.11248C5.29974 8.97346 5.29012 8.85134 5.28122 8.73819C5.25053 8.34832 5.22821 8.06483 5.63637 7.56222C6.143 6.92725 7.10958 6.30242 8.23614 6.30242H8.23948H8.24948ZM4.57979 7.35621C5.09337 7.35621 5.50971 6.93432 5.50971 6.41389C5.50971 5.89347 5.09337 5.47158 4.57979 5.47158C4.06621 5.47158 3.64987 5.89347 3.64987 6.41389C3.64987 6.93432 4.06621 7.35621 4.57979 7.35621ZM12.8391 6.41389C12.8391 6.93432 12.4227 7.35621 11.9091 7.35621C11.3956 7.35621 10.9792 6.93432 10.9792 6.41389C10.9792 5.89347 11.3956 5.47158 11.9091 5.47158C12.4227 5.47158 12.8391 5.89347 12.8391 6.41389ZM8.17615 7.80878H8.31614V9.7284C8.29668 9.72598 8.27776 9.72441 8.25945 9.72382C8.23278 9.72467 8.20496 9.72752 8.17615 9.73203V7.80878ZM8.17615 9.73203C8.04733 9.75219 7.89884 9.80549 7.74525 9.86062C7.65854 9.89175 7.5702 9.92346 7.48286 9.95011C7.3748 9.98754 7.26842 10.0159 7.18746 10.0374L7.18745 10.0374L7.18743 10.0374C7.07113 10.0684 7.00727 10.0854 7.06623 10.0953C7.23031 10.1018 7.40277 10.0751 7.58943 10.0462C7.79331 10.0146 8.01412 9.98036 8.25945 9.98389C8.50222 9.98037 8.72153 10.0143 8.92489 10.0458C9.11242 10.0749 9.28639 10.1018 9.45268 10.0953C9.50928 10.0877 9.45268 10.0725 9.34515 10.0436C9.26271 10.0214 9.15032 9.99115 9.03605 9.95011C8.94887 9.92351 8.86037 9.89187 8.77347 9.8608L8.77345 9.86079L8.77343 9.86078C8.60862 9.80186 8.44954 9.745 8.31614 9.7284V9.82851H8.17615V9.73203ZM8.21614 13.0202C8.59535 13.0202 8.90275 12.7087 8.90275 12.3245C8.90275 11.9402 8.59535 11.6287 8.21614 11.6287C7.83694 11.6287 7.52954 11.9402 7.52954 12.3245C7.52954 12.7087 7.83694 13.0202 8.21614 13.0202ZM8.83274 12.3279C8.83274 12.6729 8.55667 12.9527 8.21612 12.9527C7.87558 12.9527 7.59951 12.6729 7.59951 12.3279C7.59951 11.9828 7.87558 11.703 8.21612 11.703C8.55667 11.703 8.83274 11.9828 8.83274 12.3279ZM8.39612 12.1286C8.43279 12.1624 8.45279 12.2096 8.45279 12.2772C8.45279 12.3447 8.43279 12.392 8.39612 12.4258C8.35613 12.4562 8.29947 12.4731 8.21947 12.4731H8.14948V12.6251H8.02949V12.0813H8.21947C8.29947 12.0813 8.35946 12.0982 8.39612 12.1286ZM8.32944 12.2704C8.32944 12.3008 8.32277 12.3245 8.30944 12.3414C8.29611 12.3583 8.26945 12.3684 8.22945 12.365H8.14946V12.1826H8.21612C8.25611 12.1826 8.28611 12.1894 8.30278 12.2029C8.31944 12.2164 8.32944 12.24 8.32944 12.2704Z" fill="#F4BF75"/>
<path id="Shape" fill-rule="evenodd" clip-rule="evenodd" d="M11.2492 10.4567C9.28599 11.1896 7.12951 11.1896 5.16636 10.4567C5.14636 10.45 5.13636 10.4398 5.10303 10.4263C5.10303 10.5547 5.10303 10.6864 5.10303 10.8147C5.10303 10.987 5.24301 11.1863 5.40633 11.2471C7.21617 11.9226 9.19933 11.9226 11.0092 11.2471C11.1758 11.1863 11.3025 10.987 11.3025 10.8147C11.3025 10.6864 11.3025 10.5547 11.3025 10.4263C11.3025 10.4365 11.2691 10.4466 11.2492 10.4567V10.4567Z" fill="#AB7558"/>
<path id="Shape_2" fill-rule="evenodd" clip-rule="evenodd" d="M6.28295 2.94184C6.28295 2.94184 2.57328 3.46197 2.89325 7.19409C2.90991 7.38323 2.15331 6.38687 1.5667 6.0829C0.980083 5.77892 1.00008 4.79608 1.00008 4.79608C1.00008 4.79608 0.990082 3.08369 3.35987 2.57707C5.72633 2.07383 6.28295 2.94184 6.28295 2.94184V2.94184Z" fill="#AB7558"/>
<path id="Shape_3" fill-rule="evenodd" clip-rule="evenodd" d="M10.1926 2.94184C10.1926 2.94184 13.9023 3.46197 13.5823 7.19409C13.5656 7.38323 14.3222 6.38687 14.9088 6.0829C15.4955 5.77892 15.4755 4.79608 15.4755 4.79608C15.4755 4.79608 15.4855 3.08369 13.1157 2.57707C10.7492 2.07383 10.1926 2.94184 10.1926 2.94184V2.94184Z" fill="#AB7558"/>
<g id="Group">
<path id="Oval" fill-rule="evenodd" clip-rule="evenodd" d="M8.21609 12.5122C8.35783 12.5122 8.47273 12.3958 8.47273 12.2522C8.47273 12.1085 8.35783 11.9921 8.21609 11.9921C8.07435 11.9921 7.95944 12.1085 7.95944 12.2522C7.95944 12.3958 8.07435 12.5122 8.21609 12.5122Z" fill="#F4BF75"/>
<path id="Oval_2" fill-rule="evenodd" clip-rule="evenodd" d="M4.81639 7.01031C4.94893 7.01031 5.05637 6.90144 5.05637 6.76713C5.05637 6.63283 4.94893 6.52396 4.81639 6.52396C4.68386 6.52396 4.57642 6.63283 4.57642 6.76713C4.57642 6.90144 4.68386 7.01031 4.81639 7.01031Z" fill="#AB7558"/>
<path id="Oval_3" fill-rule="evenodd" clip-rule="evenodd" d="M12.1491 7.01031C12.2816 7.01031 12.389 6.90144 12.389 6.76713C12.389 6.63283 12.2816 6.52396 12.1491 6.52396C12.0165 6.52396 11.9091 6.63283 11.9091 6.76713C11.9091 6.90144 12.0165 7.01031 12.1491 7.01031Z" fill="#AB7558"/>
<path id="Shape_4" fill-rule="evenodd" clip-rule="evenodd" d="M9.11266 7.93572C9.22265 8.18228 8.84268 8.5842 8.2394 8.5842C7.63612 8.5842 7.25615 8.18228 7.36614 7.93572C7.4728 7.68241 7.8561 7.60135 8.2394 7.59798C8.6227 7.60135 9.006 7.68241 9.11266 7.93572V7.93572Z" fill="#AB7558"/>
</g>
</g>
</g>
</svg>
