<svg width="16" height="16" viewBox="0 0 16 16" fill="none" xmlns="http://www.w3.org/2000/svg">
<g id="react">
<path id="Vector" d="M11.8785 3.00034H4.12342C3.53031 2.99586 3.00885 3.45995 3.00098 4.12278V11.8778C3.00887 12.5407 3.53031 13.0047 4.12342 13.0003H11.8785C12.6456 12.9893 12.9877 12.41 13.001 11.8778V4.12278C12.9877 3.59061 12.6456 3.01126 11.8785 3.00034ZM6.0456 11.1122C5.96752 11.6921 5.60476 12.0706 4.93859 12.0894C4.41941 12.1041 3.99784 11.8799 3.73589 11.3856L4.36456 11.0029L4.36456 11.0029L4.36458 11.0029L4.36456 11.0029C4.36466 11.0031 4.53032 11.3018 4.70794 11.3633C4.80178 11.3958 4.99836 11.4078 5.1265 11.3241C5.24353 11.2476 5.28025 11.0439 5.28025 11.0439V8.28314H6.0456V11.1122ZM8.5565 11.9381C7.94371 12.2101 6.85626 12.1109 6.48295 11.2899L7.09796 10.9345C7.40547 11.5188 8.20301 11.5174 8.35957 11.1326C8.51249 10.7568 8.05122 10.6099 7.47878 10.3561C7.2298 10.2277 6.84454 10.0255 6.72892 9.53136C6.64167 9.15849 6.71952 8.59507 7.30292 8.33777L7.30299 8.33781C8.11218 8.04084 8.73346 8.4198 8.91568 8.85715L8.32799 9.23984C8.24109 9.08302 8.05592 8.9227 7.84215 8.91123C7.64827 8.90083 7.46804 9.00218 7.46229 9.26436C7.4738 9.6464 7.97615 9.64636 8.57855 10.028C9.01986 10.3075 9.1025 10.5212 9.14331 10.9074C9.17355 11.1936 9.1197 11.6882 8.5565 11.9381ZM11.5398 12.0689L10.8018 10.7568L10.0637 12.0689H9.31205L10.3781 10.1145L9.38038 8.25579L9.38042 8.25577H10.1458L10.8018 9.47213L11.4578 8.25577H12.2095L11.2254 10.1145L12.2915 12.0689H11.5398Z" fill="#70E3EB"/>
</g>
</svg>
