<svg width="16" height="16" viewBox="0 0 16 16" fill="none" xmlns="http://www.w3.org/2000/svg">
<path fill-rule="evenodd" clip-rule="evenodd" d="M13.6485 13.4485C13.8736 13.2235 14 12.9183 14 12.6V6C14 5.68174 13.8736 5.37652 13.6485 5.15147C13.4235 4.92643 13.1183 4.8 12.8 4.8H7.4L6.2 3H3.2C2.88174 3 2.57652 3.12643 2.35147 3.35147C2.12643 3.57652 2 3.88174 2 4.2V12.6C2 12.9183 2.12643 13.2235 2.35147 13.4485C2.57652 13.6736 2.88174 13.8 3.2 13.8H12.8C13.1183 13.8 13.4235 13.6736 13.6485 13.4485ZM10.3904 7.31235C10.5629 7.09672 10.528 6.78207 10.3123 6.60957C10.0967 6.43706 9.78207 6.47202 9.60957 6.68765L5.60957 11.6877C5.43706 11.9033 5.47202 12.2179 5.68765 12.3904C5.90328 12.5629 6.21793 12.528 6.39043 12.3123L10.3904 7.31235Z" fill="#7CA4C0"/>
</svg>
