<svg width="16" height="16" viewBox="0 0 16 16" fill="none" xmlns="http://www.w3.org/2000/svg">
<g id="ruby">
<g id="ruby-rough" clip-path="url(#clip0)">
<path id="Vector" d="M9.43964 4.82805C8.61485 7.03412 7.0761 8.55948 4.8704 9.34146C3.78937 9.72472 2.89316 8.78747 3.69544 7.18318C4.5444 5.48557 5.84189 4.24554 7.5828 3.4941C9.14583 2.96772 9.76432 3.5797 9.43964 4.82805ZM9.11124 6.49136L9.11171 6.49231L12.7563 6.23678C12.6655 6.15018 12.6144 6.0934 12.5552 6.04608L9.30289 3.43542C9.19594 3.34882 9.12969 3.21254 8.98679 3.02326C9.451 3.02326 9.82625 3.019 10.2015 3.02421C10.6544 3.03083 11.1181 2.98682 11.5582 3.06821C12.5098 3.24425 13.0175 3.85799 12.9995 4.82521C12.983 5.73187 12.4397 12.4618 12.4397 12.4618L10.9752 11.1567C10.9752 11.1567 10.8616 11.0298 10.793 10.9858C10.2058 10.612 9.96064 10.0546 9.82719 9.38831C9.5918 8.26395 9.24851 7.08223 9.11124 6.49136ZM6.2337 9.17111C7.49336 9.57427 8.74309 9.9746 10.0297 10.3863C9.36014 11.062 8.64797 11.6284 7.85205 12.1376L12.1066 12.4627L12.1071 12.5171C12.1071 12.5171 5.20496 12.987 4.91867 12.9818C3.70443 12.9596 3.0164 12.2942 3.00078 11.0762C2.99179 10.392 3.0623 9.70677 3.10583 9.02252C3.10915 8.97094 3.18297 8.92362 3.22413 8.87441C3.28518 8.92883 3.37414 8.97141 3.40395 9.03956C3.76642 9.87996 4.57654 11.7931 4.57654 11.7931C4.57654 11.7931 5.07767 11.742 5.30859 11.6824C5.39944 11.6592 5.50497 11.5485 5.53431 11.4557C5.83952 10.5232 6.12744 9.40052 6.2337 9.17111Z" fill="#D46C6C"/>
</g>
</g>
<defs>
<clipPath id="clip0">
<rect width="10" height="10" fill="white" transform="translate(3 3)"/>
</clipPath>
</defs>
</svg>
