<svg width="16" height="16" viewBox="0 0 16 16" fill="none" xmlns="http://www.w3.org/2000/svg">
<g id="scala">
<g id="scala-icon">
<path id="XMLID_1_" d="M12.4496 14H3.46277C2.65693 14 2 13.3382 2 12.5265V3.47353C2 2.66176 2.65693 2 3.46277 2H12.4584C13.2642 2 13.9212 2.66176 13.9212 3.47353V12.5353C13.9124 13.3382 13.2555 14 12.4496 14Z" fill="#DC332D"/>
<g id="shadow">
<g id="Clipped">
<path id="XMLID_2_" fill-rule="evenodd" clip-rule="evenodd" d="M12.4496 14H3.46277C2.65693 14 2 13.3382 2 12.5265V3.47353C2 2.66176 2.65693 2 3.46277 2H12.4584C13.2642 2 13.9212 2.66176 13.9212 3.47353V12.5353C13.9124 13.3382 13.2555 14 12.4496 14Z" fill="#E75A5A"/>
<mask id="mask0" mask-type="alpha" maskUnits="userSpaceOnUse" x="2" y="2" width="12" height="12">
<path id="XMLID_2__2" fill-rule="evenodd" clip-rule="evenodd" d="M12.4496 14H3.46277C2.65693 14 2 13.3382 2 12.5265V3.47353C2 2.66176 2.65693 2 3.46277 2H12.4584C13.2642 2 13.9212 2.66176 13.9212 3.47353V12.5353C13.9124 13.3382 13.2555 14 12.4496 14Z" fill="white"/>
</mask>
<g mask="url(#mask0)">
<path id="Shape" d="M5.19708 6.88825L5.97664 7.67355L5.19708 9.85296L6.03796 10.6912L5.19708 12.8088L6.38832 14H13.9124V6.41178L10.7153 3.19119V3.80002L5.19708 6.88825Z" fill="#AC4142"/>
</g>
</g>
</g>
<g id="logo">
<g id="Group" opacity="0.6">
<path id="Shape_2" d="M5.19708 6.88826C5.19708 6.88826 10.7066 7.44415 10.7066 8.37062V6.14709C10.7066 6.14709 10.7066 5.22062 5.19708 4.66473V5.52944V6.88826Z" fill="white"/>
<path id="Shape_3" d="M5.19708 9.85299C5.19708 9.85299 10.7066 10.4089 10.7066 11.3353V9.11181C10.7066 9.11181 10.7066 8.18534 5.19708 7.62946V9.85299Z" fill="white"/>
</g>
<path id="Shape_4" d="M10.7153 3.19119V5.41472C10.7153 5.41472 10.7153 6.34119 5.20585 6.89707V4.66472C5.19709 4.66472 10.7153 4.11766 10.7153 3.19119Z" fill="white"/>
<path id="Shape_5" d="M5.19708 7.62942C5.19708 7.62942 10.7066 7.07353 10.7066 6.14706V8.37059C10.7066 8.37059 10.7066 9.29706 5.19708 9.85295V7.62942Z" fill="white"/>
<path id="Shape_6" d="M5.19708 12.8088V10.5853C5.19708 10.5853 10.7066 10.0294 10.7066 9.10297V11.3265C10.7153 11.3353 10.7153 12.253 5.19708 12.8088Z" fill="white"/>
</g>
</g>
</g>
</svg>
