<svg width="16" height="16" viewBox="0 0 16 16" fill="none" xmlns="http://www.w3.org/2000/svg">
<g id="settings">
<g id="settings_2">
<path id="Shape" d="M7.70944 6.7195L5.71936 4.6465L6.34 4L4.42 2L2.5 4L4.42 6L5.04064 5.3535L6.91072 7.3015L7.70944 6.7195Z" fill="#8E95B4"/>
<path id="Shape_2" d="M11.5912 8.97C11.4429 8.988 11.2927 9 11.14 9C10.9936 9 10.8482 8.991 10.7023 8.9735L8.95459 11.223L11.1232 13.482C11.7861 14.1725 12.8603 14.1725 13.5232 13.482V13.482C14.1861 12.7915 14.1861 11.6725 13.5232 10.982L11.5912 8.97Z" fill="#555B77"/>
<path id="Shape_3" d="M12.2301 5.3855L10.7699 3.8645L12.3097 2.2605C11.9521 2.0945 11.5571 2 11.14 2C9.54925 2 8.25997 3.343 8.25997 5C8.25997 5.297 8.30269 5.583 8.37997 5.854L3.20125 10.219C2.77357 10.6125 2.51821 11.1785 2.50093 11.772C2.48317 12.366 2.70445 12.9475 3.10765 13.367C3.49933 13.7755 4.02013 14 4.57405 14C5.16877 14 5.73613 13.734 6.12973 13.2695L10.3201 7.875C10.5803 7.9555 10.8549 8 11.14 8C12.7307 8 14.02 6.657 14.02 5C14.02 4.5655 13.9293 4.154 13.7699 3.781L12.2301 5.3855Z" fill="#CBCEDC"/>
</g>
</g>
</svg>
