<svg width="16" height="16" viewBox="0 0 16 16" fill="none" xmlns="http://www.w3.org/2000/svg">
<g id="settings">
<g id="Group">
<path id="Subtract" fill-rule="evenodd" clip-rule="evenodd" d="M8.64945 8.44021C8.62806 8.32225 8.6425 8.20059 8.69091 8.09091C8.737 7.98336 8.81354 7.89163 8.9111 7.82702C9.00866 7.76241 9.12299 7.72774 9.24 7.72727H9.27273C9.46561 7.72727 9.6506 7.65065 9.78699 7.51426C9.92338 7.37787 10 7.19288 10 7C10 6.80712 9.92338 6.62213 9.78699 6.48574C9.6506 6.34935 9.46561 6.27273 9.27273 6.27273H9.21091C9.0939 6.27226 8.97957 6.23759 8.88201 6.17298C8.78445 6.10837 8.70791 6.01664 8.66182 5.90909V5.88C8.61341 5.77032 8.59897 5.64866 8.62036 5.53069C8.64175 5.41273 8.69799 5.30388 8.78182 5.21818L8.80364 5.19636C8.87126 5.12882 8.9249 5.04861 8.9615 4.96032C8.9981 4.87203 9.01694 4.77739 9.01694 4.68182C9.01694 4.58624 8.9981 4.49161 8.9615 4.40332C8.9249 4.31503 8.87126 4.23482 8.80364 4.16727C8.73609 4.09965 8.65588 4.04601 8.56759 4.00941C8.4793 3.97281 8.38467 3.95397 8.28909 3.95397C8.19352 3.95397 8.09888 3.97281 8.01059 4.00941C7.9223 4.04601 7.84209 4.09965 7.77455 4.16727L7.75273 4.18909C7.66703 4.27292 7.55818 4.32916 7.44021 4.35055C7.32225 4.37194 7.20059 4.3575 7.09091 4.30909C6.98336 4.263 6.89163 4.18646 6.82702 4.0889C6.76241 3.99134 6.72774 3.87701 6.72727 3.76V3.72727C6.72727 3.53439 6.65065 3.3494 6.51426 3.21301C6.37787 3.07662 6.19288 3 6 3C5.80712 3 5.62213 3.07662 5.48574 3.21301C5.34935 3.3494 5.27273 3.53439 5.27273 3.72727V3.78909C5.27226 3.9061 5.23759 4.02043 5.17298 4.11799C5.10837 4.21555 5.01664 4.29209 4.90909 4.33818H4.88C4.77032 4.38659 4.64866 4.40103 4.53069 4.37964C4.41273 4.35825 4.30388 4.30201 4.21818 4.21818L4.19636 4.19636C4.12882 4.12874 4.04861 4.0751 3.96032 4.0385C3.87203 4.0019 3.77739 3.98306 3.68182 3.98306C3.58624 3.98306 3.49161 4.0019 3.40332 4.0385C3.31503 4.0751 3.23482 4.12874 3.16727 4.19636C3.09965 4.26391 3.04601 4.34412 3.00941 4.43241C2.97281 4.5207 2.95397 4.61533 2.95397 4.71091C2.95397 4.80648 2.97281 4.90112 3.00941 4.98941C3.04601 5.0777 3.09965 5.15791 3.16727 5.22545L3.18909 5.24727C3.27292 5.33297 3.32916 5.44182 3.35055 5.55979C3.37194 5.67775 3.3575 5.79941 3.30909 5.90909C3.26753 6.02209 3.19294 6.11996 3.09502 6.19C2.99709 6.26004 2.88036 6.299 2.76 6.30182H2.72727C2.53439 6.30182 2.3494 6.37844 2.21301 6.51483C2.07662 6.65122 2 6.83621 2 7.02909C2 7.22198 2.07662 7.40696 2.21301 7.54335C2.3494 7.67974 2.53439 7.75636 2.72727 7.75636H2.78909C2.9061 7.75683 3.02043 7.7915 3.11799 7.85611C3.21555 7.92072 3.29209 8.01245 3.33818 8.12C3.38659 8.22968 3.40103 8.35134 3.37964 8.46931C3.35825 8.58727 3.30201 8.69612 3.21818 8.78182L3.19636 8.80364C3.12874 8.87118 3.0751 8.95139 3.0385 9.03968C3.0019 9.12797 2.98306 9.22261 2.98306 9.31818C2.98306 9.41376 3.0019 9.50839 3.0385 9.59668C3.0751 9.68497 3.12874 9.76518 3.19636 9.83273C3.26391 9.90035 3.34412 9.95399 3.43241 9.99059C3.5207 10.0272 3.61533 10.046 3.71091 10.046C3.80648 10.046 3.90112 10.0272 3.98941 9.99059C4.0777 9.95399 4.15791 9.90035 4.22545 9.83273L4.24727 9.81091C4.33297 9.72708 4.44182 9.67084 4.55979 9.64945C4.67775 9.62806 4.79941 9.6425 4.90909 9.69091C5.02209 9.73247 5.11996 9.80706 5.19 9.90498C5.26004 10.0029 5.299 10.1196 5.30182 10.24V10.2727C5.30182 10.4656 5.37844 10.6506 5.51483 10.787C5.65122 10.9234 5.83621 11 6.02909 11C6.22198 11 6.40696 10.9234 6.54335 10.787C6.67974 10.6506 6.75636 10.4656 6.75636 10.2727V10.2109C6.75683 10.0939 6.7915 9.97957 6.85611 9.88201C6.92072 9.78445 7.01245 9.70791 7.12 9.66182C7.22968 9.61341 7.35134 9.59897 7.46931 9.62036C7.58727 9.64175 7.69612 9.69799 7.78182 9.78182L7.80364 9.80364C7.87118 9.87126 7.95139 9.9249 8.03968 9.9615C8.12797 9.9981 8.22261 10.0169 8.31818 10.0169C8.41376 10.0169 8.50839 9.9981 8.59668 9.9615C8.68497 9.9249 8.76518 9.87126 8.83273 9.80364C8.90035 9.73609 8.95399 9.65588 8.99059 9.56759C9.02719 9.4793 9.04603 9.38467 9.04603 9.28909C9.04603 9.19352 9.02719 9.09888 8.99059 9.01059C8.95399 8.9223 8.90035 8.84209 8.83273 8.77455L8.81091 8.75273C8.72708 8.66703 8.67084 8.55818 8.64945 8.44021ZM7.76237 7.03366C7.76237 7.9884 6.9884 8.76237 6.03366 8.76237C5.07892 8.76237 4.30495 7.9884 4.30495 7.03366C4.30495 6.07892 5.07892 5.30495 6.03366 5.30495C6.9884 5.30495 7.76237 6.07892 7.76237 7.03366Z" fill="#CBCEDC"/>
<path id="Subtract_2" fill-rule="evenodd" clip-rule="evenodd" d="M12.1613 11.5148C12.126 11.4589 12.1082 11.3937 12.1103 11.3277C12.1117 11.2632 12.1319 11.2005 12.1684 11.1473C12.2049 11.0942 12.2562 11.0528 12.3159 11.0284L12.3326 11.0217C12.4312 10.9818 12.5099 10.9045 12.5515 10.8066C12.593 10.7087 12.594 10.5984 12.5541 10.4998C12.5143 10.4012 12.437 10.3225 12.3391 10.2809C12.2412 10.2394 12.1308 10.2384 12.0323 10.2782L12.0007 10.291C11.9408 10.3149 11.8752 10.3208 11.812 10.308C11.7488 10.2951 11.6907 10.264 11.6449 10.2185L11.6389 10.2037C11.5915 10.1576 11.559 10.0984 11.5456 10.0337C11.5322 9.969 11.5384 9.90176 11.5636 9.84064L11.5702 9.82499C11.5908 9.7765 11.6017 9.72443 11.6022 9.67175C11.6026 9.61906 11.5927 9.5668 11.573 9.51795C11.5533 9.46911 11.5241 9.42463 11.4872 9.38706C11.4502 9.34949 11.4062 9.31957 11.3577 9.29902C11.3092 9.2784 11.2572 9.26755 11.2045 9.26708C11.1518 9.2666 11.0995 9.27652 11.0507 9.29625C11.0018 9.31599 10.9574 9.34516 10.9198 9.3821C10.8822 9.41903 10.8523 9.46301 10.8318 9.51152L10.8251 9.52718C10.7986 9.58772 10.7546 9.63894 10.6987 9.67423C10.6429 9.70952 10.5777 9.72727 10.5116 9.72517C10.4471 9.72382 10.3845 9.70365 10.3313 9.66713C10.2781 9.6306 10.2368 9.57933 10.2124 9.51962L10.2056 9.5029C10.1658 9.40431 10.0884 9.32559 9.99057 9.28405C9.8927 9.2425 9.78233 9.24154 9.68375 9.28137C9.58516 9.3212 9.50644 9.39856 9.4649 9.49643C9.42335 9.59431 9.42239 9.70467 9.46222 9.80326L9.47498 9.83485C9.49891 9.89476 9.50479 9.96035 9.49192 10.0236C9.47904 10.0868 9.44797 10.1448 9.40251 10.1906L9.38765 10.1966C9.34159 10.244 9.28238 10.2765 9.21768 10.2899C9.15297 10.3033 9.08572 10.2971 9.02461 10.2719L9.00895 10.2653C8.96047 10.2447 8.9084 10.2338 8.85571 10.2333C8.80303 10.2329 8.75077 10.2428 8.70192 10.2625C8.65307 10.2822 8.6086 10.3114 8.57103 10.3484C8.53346 10.3853 8.50354 10.4293 8.48298 10.4778C8.46237 10.5263 8.45152 10.5783 8.45104 10.631C8.45057 10.6837 8.46048 10.736 8.48022 10.7848C8.49996 10.8337 8.52913 10.8781 8.56606 10.9157C8.603 10.9533 8.64698 10.9832 8.69549 11.0038L8.71115 11.0104C8.77169 11.0369 8.82291 11.0809 8.8582 11.1368C8.89349 11.1927 8.91123 11.2578 8.90914 11.3239C8.91124 11.3902 8.89332 11.4556 8.85774 11.5117C8.82215 11.5677 8.77054 11.6117 8.7096 11.638L8.69287 11.6447C8.59429 11.6846 8.51557 11.7619 8.47402 11.8598C8.43248 11.9577 8.43151 12.068 8.47134 12.1666C8.51117 12.2652 8.58853 12.3439 8.68641 12.3855C8.78428 12.427 8.89465 12.428 8.99323 12.3882L9.02483 12.3754C9.08473 12.3515 9.15032 12.3456 9.21353 12.3585C9.27673 12.3713 9.33479 12.4024 9.38056 12.4479C9.42795 12.4939 9.46045 12.5531 9.47388 12.6178C9.48731 12.6825 9.48104 12.7498 9.45589 12.8109L9.44925 12.8266C9.42863 12.875 9.41778 12.9271 9.41731 12.9798C9.41683 13.0325 9.42675 13.0847 9.44648 13.1336C9.46622 13.1824 9.49539 13.2269 9.53233 13.2645C9.56926 13.3021 9.61324 13.332 9.66175 13.3525C9.71024 13.3731 9.76231 13.384 9.81499 13.3845C9.86767 13.3849 9.91993 13.375 9.96878 13.3553C10.0176 13.3356 10.0621 13.3064 10.0997 13.2694C10.1372 13.2325 10.1672 13.1885 10.1877 13.14L10.1944 13.1244C10.2209 13.0638 10.2649 13.0126 10.3208 12.9773C10.3766 12.942 10.4418 12.9243 10.5078 12.9264C10.5742 12.9243 10.6396 12.9422 10.6956 12.9778C10.7516 13.0134 10.7957 13.065 10.822 13.1259L10.8287 13.1426C10.8685 13.2412 10.9459 13.3199 11.0438 13.3615C11.1416 13.403 11.252 13.404 11.3506 13.3642C11.4492 13.3243 11.5279 13.247 11.5695 13.1491C11.611 13.0512 11.612 12.9409 11.5721 12.8423L11.5594 12.8107C11.5354 12.7508 11.5296 12.6852 11.5424 12.622C11.5553 12.5588 11.5864 12.5007 11.6318 12.455C11.6779 12.4076 11.7371 12.3751 11.8018 12.3616C11.8665 12.3482 11.9338 12.3545 11.9949 12.3796L12.0105 12.3863C12.059 12.4069 12.1111 12.4177 12.1638 12.4182C12.2164 12.4187 12.2687 12.4088 12.3176 12.389C12.3664 12.3693 12.4109 12.3401 12.4485 12.3032C12.486 12.2662 12.5159 12.2223 12.5365 12.1738C12.5571 12.1253 12.568 12.0732 12.5684 12.0205C12.5689 11.9678 12.559 11.9156 12.5393 11.8667C12.5195 11.8179 12.4904 11.7734 12.4534 11.7358C12.4165 11.6983 12.3725 11.6683 12.324 11.6478L12.3083 11.6411C12.2478 11.6147 12.1966 11.5706 12.1613 11.5148ZM11.4444 10.9481C11.653 11.4644 11.4036 12.0519 10.8873 12.2605C10.3711 12.4691 9.78356 12.2197 9.57499 11.7034C9.36642 11.1872 9.61583 10.5996 10.1321 10.3911C10.6483 10.1825 11.2358 10.4319 11.4444 10.9481Z" fill="#6B7394"/>
</g>
</g>
</svg>
