<svg width="16" height="16" viewBox="0 0 16 16" fill="none" xmlns="http://www.w3.org/2000/svg">
<g id="svelte">
<mask id="mask0" mask-type="alpha" maskUnits="userSpaceOnUse" x="0" y="0" width="16" height="16">
<circle id="Ellipse" cx="8" cy="8" r="8" fill="#3F445A"/>
</mask>
<g mask="url(#mask0)">
<circle id="Ellipse_2" cx="8" cy="8" r="8" fill="#D46C6C"/>
<g id="logo">
<path id="Combined Shape" fill-rule="evenodd" clip-rule="evenodd" d="M7.51707 3.46729C8.91407 2.5801 10.8458 2.99389 11.8232 4.38919V4.38741C12.2924 5.04165 12.4771 5.85681 12.3356 6.64856C12.2684 7.02339 12.1254 7.38066 11.9152 7.69859C12.2218 8.28153 12.3246 8.94983 12.2071 9.59756C12.0676 10.3742 11.6061 11.0563 10.9359 11.4761L8.48292 13.0351C7.08592 13.9223 5.15779 13.5085 4.17587 12.1132C3.70741 11.4587 3.52305 10.6437 3.66438 9.85206C3.73158 9.47723 3.87463 9.11996 4.08482 8.80202C3.77855 8.2196 3.67583 7.55199 3.79292 6.90484C3.93213 6.12807 4.39372 5.44594 5.06406 5.02633L7.51707 3.46729ZM5.18815 11.4698C5.65337 12.1386 6.48773 12.447 7.27786 12.2422H7.27875C7.45503 12.1955 7.62304 12.122 7.77685 12.0242L10.2263 10.4661C10.6288 10.2129 10.906 9.80283 10.9904 9.33594C11.0754 8.85986 10.9644 8.36972 10.6824 7.97623C10.2168 7.30695 9.38162 6.99851 8.59095 7.20383C8.41466 7.25055 8.24665 7.32409 8.09285 7.42185L7.15735 8.01628C7.11063 8.04559 7.05978 8.06779 7.00649 8.08213C6.76816 8.14377 6.51656 8.05069 6.37628 7.84898C6.29183 7.73035 6.25959 7.58251 6.28701 7.43964C6.31222 7.29878 6.39583 7.17504 6.51732 7.09883L8.97211 5.54602C9.01841 5.51653 9.069 5.49432 9.12208 5.48017C9.36042 5.41825 9.61217 5.51138 9.75229 5.71331C9.82697 5.81902 9.86204 5.94752 9.85137 6.07637L9.84245 6.16536L9.93171 6.19295C10.2766 6.29642 10.6012 6.45804 10.8913 6.6708L11.0172 6.75979L11.0636 6.61919C11.0883 6.5444 11.1076 6.46798 11.1216 6.3905C11.2061 5.91417 11.0944 5.42401 10.8119 5.03078C10.3465 4.36165 9.51168 4.0532 8.72127 4.25838C8.54499 4.3051 8.37698 4.37864 8.22318 4.4764L5.77374 6.03455C5.37126 6.28771 5.094 6.69778 5.00962 7.16468C4.92387 7.6404 5.03391 8.1305 5.31491 8.52439C5.78056 9.19367 6.61573 9.5021 7.4064 9.29679C7.58268 9.25007 7.75069 9.17653 7.9045 9.07877L8.84357 8.48434C8.89029 8.45503 8.94113 8.43283 8.99443 8.41849C9.23275 8.35685 9.48435 8.44993 9.62464 8.65164C9.70823 8.77064 9.74039 8.91812 9.71391 9.06097C9.68797 9.20178 9.60414 9.32536 9.48271 9.40179L7.03416 10.9599C6.98786 10.9894 6.93728 11.0116 6.8842 11.0258C6.64274 11.0895 6.3873 10.9938 6.24773 10.7873C6.17305 10.6816 6.13798 10.5531 6.14865 10.4242L6.15758 10.3353L6.06831 10.3077C5.72341 10.2042 5.39885 10.0426 5.10871 9.82982L4.98284 9.74083L4.93643 9.88143C4.91177 9.95622 4.89238 10.0326 4.8784 10.1101C4.79393 10.5864 4.90559 11.0766 5.18815 11.4698Z" fill="white"/>
</g>
</g>
</g>
</svg>
