<svg width="16" height="16" viewBox="0 0 16 16" fill="none" xmlns="http://www.w3.org/2000/svg">
<g id="typescript_def">
<path id="Combined Shape" d="M12 2.5H4V3.5H12V2.5ZM2.5 4V12H3.5V4H2.5ZM4 13.5H12V12.5H4V13.5ZM13.5 12V4H12.5V12H13.5ZM12 13.5C12.8284 13.5 13.5 12.8284 13.5 12H12.5C12.5 12.2761 12.2761 12.5 12 12.5V13.5ZM2.5 12C2.5 12.8284 3.17157 13.5 4 13.5V12.5C3.72386 12.5 3.5 12.2761 3.5 12H2.5ZM4 2.5C3.17157 2.5 2.5 3.17157 2.5 4H3.5C3.5 3.72386 3.72386 3.5 4 3.5V2.5ZM12 3.5C12.2761 3.5 12.5 3.72386 12.5 4H13.5C13.5 3.17157 12.8284 2.5 12 2.5V3.5Z" fill="#5F7CE3"/>
<path id="Shape" fill-rule="evenodd" clip-rule="evenodd" d="M8.86927 10.6553C8.99392 10.7197 9.15259 10.7767 9.3453 10.8262C9.538 10.8757 9.74007 10.9004 9.95153 10.9004C10.1741 10.9004 10.3437 10.8608 10.4604 10.7814C10.577 10.7021 10.6354 10.598 10.6354 10.4692C10.6354 10.3501 10.5798 10.2484 10.4687 10.164C10.3576 10.0796 10.1718 9.99773 9.91142 9.9184C9.55345 9.79939 9.26457 9.64437 9.04478 9.45333C8.825 9.26228 8.71511 9.023 8.71511 8.73549C8.71511 8.39815 8.86163 8.11555 9.15468 7.8877C9.44772 7.65984 9.84927 7.54576 10.3593 7.54544C10.6034 7.54544 10.8164 7.56527 10.9984 7.60494C11.1803 7.64461 11.3362 7.69174 11.4661 7.74632L11.2463 8.46797C11.1595 8.4283 11.04 8.38609 10.888 8.34134C10.7359 8.2966 10.5541 8.27423 10.3427 8.27423C10.1312 8.27423 9.97392 8.31263 9.8708 8.38942C9.76768 8.46622 9.71612 8.55666 9.71612 8.66075C9.71612 8.78484 9.77844 8.88401 9.90309 8.95827C10.0277 9.03252 10.2312 9.11932 10.5135 9.21865C10.8985 9.34749 11.182 9.50743 11.364 9.69848C11.5459 9.88952 11.6367 10.1263 11.6364 10.4087C11.6364 10.741 11.494 11.0286 11.2093 11.2717C10.9246 11.5148 10.4866 11.6364 9.89528 11.6364C9.64563 11.6364 9.4097 11.6103 9.18749 11.5583C8.96527 11.5062 8.79167 11.4504 8.66667 11.3907L8.87031 10.6543L8.86927 10.6553Z" fill="#5F7CE3"/>
<path id="T" fill-rule="evenodd" clip-rule="evenodd" d="M6.54 11.6364V8.23749H5.27274V7.54544H8.66668V8.23749H7.40232V11.6364H6.54Z" fill="#5F7CE3"/>
</g>
</svg>
