<svg width="16" height="16" viewBox="0 0 16 16" fill="none" xmlns="http://www.w3.org/2000/svg">
<g id="unknown">
<path id="Subtract" fill-rule="evenodd" clip-rule="evenodd" d="M8.08331 2.16669H4.49998C4.19056 2.16669 3.89381 2.2896 3.67502 2.5084C3.45623 2.72719 3.33331 3.02393 3.33331 3.33335V12.6667C3.33331 12.9761 3.45623 13.2729 3.67502 13.4916C3.89381 13.7104 4.19056 13.8334 4.49998 13.8334H11.5C11.8094 13.8334 12.1061 13.7104 12.3249 13.4916C12.5437 13.2729 12.6666 12.9761 12.6666 12.6667V6.75002H8.58331C8.30717 6.75002 8.08331 6.52616 8.08331 6.25002V2.16669ZM12.1666 5.75002L9.08331 2.66669V5.75002H12.1666Z" fill="#3F445A"/>
<path id="?" d="M10.1914 10.875H11C11.0352 10.3594 11.3828 10.0352 11.9219 10.0352C12.457 10.0352 12.8047 10.3594 12.8047 10.8008C12.8047 11.2031 12.6367 11.4297 12.1641 11.7148C11.6289 12.0352 11.3906 12.3867 11.4102 12.9375L11.4141 13.25H12.2227V13.0117C12.2227 12.6094 12.3672 12.4023 12.8711 12.1055C13.3867 11.7969 13.6914 11.3711 13.6914 10.7656C13.6914 9.92969 12.9961 9.31641 11.9648 9.31641C10.832 9.31641 10.2266 9.99219 10.1914 10.875ZM11.8242 15.0586C12.1172 15.0586 12.3398 14.8398 12.3398 14.5547C12.3398 14.2695 12.1172 14.0508 11.8242 14.0508C11.5391 14.0508 11.3125 14.2695 11.3125 14.5547C11.3125 14.8398 11.5391 15.0586 11.8242 15.0586Z" fill="#F5DFA5"/>
</g>
</svg>
